<svg width="395" height="307" viewBox="0 0 395 307" fill="none" xmlns="http://www.w3.org/2000/svg">
<path d="M344.785 77.7599C344.785 77.7599 338.687 71.6195 337.808 70.1145C333.26 62.3745 313.286 28.9119 313.286 28.9119L302.192 36.3939C302.192 36.3939 325.034 77.3729 329.755 82.9801C333.209 87.0007 336.952 90.7659 340.952 94.2461L344.785 77.7599Z" fill="#FFBE9D"/>
<path d="M89.7612 47.0578C89.7612 47.0578 97.3668 33.8912 101.174 34.6394C103.787 35.2791 106.231 36.4729 108.34 38.1396L98.6502 49.5088L89.7612 47.0578Z" fill="#B78876"/>
<path d="M45.48 79.0756L72.8962 68.6782L89.8903 42.8782L100.338 48.2876L80.5707 83.4616L48.0726 95.7596L45.48 79.0756Z" fill="#263238"/>
<path d="M316.464 0.996094H101.251V144.917H316.464V0.996094Z" fill="#FAFAFA"/>
<path d="M316.464 0.996094H101.251V15.3753H316.464V0.996094Z" fill="#455A64"/>
<path d="M110.571 8.15986C110.592 8.50369 110.509 8.84581 110.332 9.1419C110.156 9.43799 109.895 9.67442 109.582 9.82056C109.27 9.96671 108.921 10.0158 108.58 9.96159C108.24 9.90734 107.923 9.75221 107.672 9.5163C107.42 9.28038 107.246 8.97454 107.17 8.63839C107.095 8.30224 107.123 7.95126 107.249 7.63092C107.376 7.31058 107.596 7.03562 107.882 6.84166C108.167 6.6477 108.503 6.54368 108.848 6.54306C109.291 6.53145 109.72 6.69479 110.043 6.99757C110.366 7.30035 110.555 7.71807 110.571 8.15986V8.15986Z" fill="white"/>
<path d="M116.187 8.16001C116.208 8.50384 116.124 8.84596 115.948 9.14205C115.772 9.43815 115.511 9.67457 115.198 9.82072C114.886 9.96687 114.537 10.016 114.196 9.96175C113.855 9.9075 113.539 9.75237 113.287 9.51645C113.036 9.28054 112.861 8.9747 112.786 8.63855C112.711 8.3024 112.738 7.95142 112.865 7.63108C112.992 7.31073 113.212 7.03578 113.497 6.84182C113.782 6.64786 114.119 6.54384 114.464 6.54322C114.904 6.54243 115.327 6.7094 115.647 7.00997C115.967 7.31054 116.16 7.72196 116.187 8.16001Z" fill="white"/>
<path d="M121.803 8.16001C121.823 8.50384 121.74 8.84596 121.564 9.14205C121.388 9.43815 121.126 9.67457 120.814 9.82072C120.502 9.96687 120.152 10.016 119.812 9.96175C119.471 9.9075 119.155 9.75237 118.903 9.51645C118.652 9.28054 118.477 8.9747 118.402 8.63855C118.327 8.3024 118.354 7.95142 118.481 7.63108C118.608 7.31073 118.828 7.03578 119.113 6.84182C119.398 6.64786 119.735 6.54384 120.08 6.54322C120.519 6.54243 120.943 6.7094 121.263 7.00997C121.583 7.31054 121.776 7.72196 121.803 8.16001Z" fill="white"/>
<path d="M316.464 144.9C316.464 143.438 316.395 88.6474 316.283 0.978973L316.464 1.15957L101.269 1.20257L101.493 0.978973C101.493 52.2522 101.493 101.006 101.493 144.9L101.286 144.694L316.499 144.9L101.286 145.098H101.079V144.9C101.079 101.04 101.079 52.2522 101.079 0.978973V0.755371H101.32H316.516H316.697V0.93597C316.533 88.6646 316.464 143.455 316.464 144.9Z" fill="#263238"/>
<path d="M163.319 73.2964H160.95V72.8664H162.888V70.9314H163.319V73.2964Z" fill="#263238"/>
<path d="M156.514 73.2965H152.078V72.8665H156.514V73.2965ZM147.643 73.2965H143.207V72.8665H147.643V73.2965ZM138.771 73.2965H134.335V72.8665H138.771V73.2965ZM129.899 73.2965H125.455V72.8665H129.925L129.899 73.2965Z" fill="#263238"/>
<path d="M121.019 73.2964H118.65V70.9314H119.081V72.8664H121.019V73.2964Z" fill="#263238"/>
<path d="M119.081 66.5023H118.65V62.0733H119.081V66.5023ZM119.081 57.6443H118.65V53.2153H119.081V57.6443ZM119.081 48.7777H118.65V44.3487H119.081V48.7777ZM119.081 39.9197H118.65V35.4907H119.081V39.9197Z" fill="#263238"/>
<path d="M119.081 31.0618H118.65V28.6968H121.019V29.1268H119.081V31.0618Z" fill="#263238"/>
<path d="M156.514 29.1268H152.078V28.6968H156.514V29.1268ZM147.643 29.1268H143.207V28.6968H147.643V29.1268ZM138.771 29.1268H134.335V28.6968H138.771V29.1268ZM129.899 29.1268H125.455V28.6968H129.925L129.899 29.1268Z" fill="#263238"/>
<path d="M163.319 31.0618H162.888V29.1268H160.95V28.6968H163.319V31.0618Z" fill="#263238"/>
<path d="M163.319 66.5023H162.888V62.0733H163.319V66.5023ZM163.319 57.6443H162.888V53.2153H163.319V57.6443ZM163.319 48.7777H162.888V44.3487H163.319V48.7777ZM163.319 39.9197H162.888V35.4907H163.319V39.9197Z" fill="#263238"/>
<path d="M165.326 81.3115H116.394V84.5795H165.326V81.3115Z" fill="#455A64"/>
<path d="M228.539 35.938H179.607V39.206H228.539V35.938Z" fill="#455A64"/>
<path d="M301.33 48.1069C301.33 48.2359 274.086 48.3305 240.477 48.3305C206.868 48.3305 179.624 48.2359 179.624 48.1069C179.624 47.9779 206.859 47.8833 240.477 47.8833C274.095 47.8833 301.33 47.9865 301.33 48.1069Z" fill="#455A64"/>
<path d="M301.33 55.2451C301.33 55.3741 274.086 55.4687 240.477 55.4687C206.868 55.4687 179.624 55.3741 179.624 55.2451C179.624 55.1161 206.859 55.0215 240.477 55.0215C274.095 55.0215 301.33 55.1247 301.33 55.2451Z" fill="#455A64"/>
<path d="M301.33 62.383C301.33 62.5034 274.086 62.6066 240.477 62.6066C206.868 62.6066 179.624 62.5034 179.624 62.383C179.624 62.2626 206.859 62.1594 240.477 62.1594C274.095 62.1594 301.33 62.2626 301.33 62.383Z" fill="#455A64"/>
<path d="M301.33 69.521C301.33 69.6414 274.086 69.7446 240.477 69.7446C206.868 69.7446 179.624 69.6414 179.624 69.521C179.624 69.4006 206.859 69.2974 240.477 69.2974C274.095 69.2974 301.33 69.4006 301.33 69.521Z" fill="#455A64"/>
<path d="M301.33 76.6589C301.33 76.7793 274.086 76.8825 240.477 76.8825C206.868 76.8825 179.624 76.7793 179.624 76.6589C179.624 76.5385 206.859 76.4353 240.477 76.4353C274.095 76.4353 301.33 76.5299 301.33 76.6589Z" fill="#455A64"/>
<path d="M227.118 83.8401C227.118 83.9605 216.481 84.0636 203.363 84.0636C190.244 84.0636 179.607 83.9605 179.607 83.8401C179.607 83.7197 190.236 83.6165 203.363 83.6165C216.489 83.6165 227.118 83.6681 227.118 83.8401Z" fill="#455A64"/>
<path d="M300.469 97.643C300.469 97.772 282.562 97.8666 260.469 97.8666C238.375 97.8666 220.468 97.772 220.468 97.643C220.468 97.514 238.375 97.4194 260.469 97.4194C282.562 97.4194 300.469 97.5226 300.469 97.643Z" fill="#455A64"/>
<path d="M300.469 105.22C300.469 105.349 282.562 105.443 260.469 105.443C238.375 105.443 220.468 105.349 220.468 105.22C220.468 105.091 238.375 104.996 260.469 104.996C282.562 104.996 300.469 105.099 300.469 105.22Z" fill="#455A64"/>
<path d="M300.469 112.796C300.469 112.925 282.562 113.02 260.469 113.02C238.375 113.02 220.468 112.925 220.468 112.796C220.468 112.667 238.375 112.573 260.469 112.573C282.562 112.573 300.469 112.676 300.469 112.796Z" fill="#455A64"/>
<path d="M300.469 120.373C300.469 120.493 282.562 120.596 260.469 120.596C238.375 120.596 220.468 120.493 220.468 120.373C220.468 120.252 238.375 120.149 260.469 120.149C282.562 120.149 300.469 120.252 300.469 120.373Z" fill="#455A64"/>
<path d="M165.455 96.9206C165.455 97.041 154.783 97.1442 141.614 97.1442C128.444 97.1442 117.763 97.041 117.763 96.9206C117.763 96.8002 128.444 96.697 141.614 96.697C154.783 96.697 165.455 96.8002 165.455 96.9206Z" fill="#455A64"/>
<path d="M165.455 102.872C165.455 102.992 154.783 103.095 141.614 103.095C128.444 103.095 117.763 102.992 117.763 102.872C117.763 102.751 128.444 102.648 141.614 102.648C154.783 102.648 165.455 102.76 165.455 102.872Z" fill="#455A64"/>
<path d="M165.455 108.823C165.455 108.943 154.783 109.047 141.614 109.047C128.444 109.047 117.763 108.943 117.763 108.823C117.763 108.703 128.444 108.599 141.614 108.599C154.783 108.599 165.455 108.694 165.455 108.823Z" fill="#455A64"/>
<path d="M165.455 114.8C165.455 114.929 154.783 115.032 141.614 115.032C128.444 115.032 117.763 114.929 117.763 114.8C117.763 114.671 128.444 114.576 141.614 114.576C154.783 114.576 165.455 114.645 165.455 114.8Z" fill="#455A64"/>
<path d="M165.455 120.717C165.455 120.846 154.783 120.94 141.614 120.94C128.444 120.94 117.763 120.846 117.763 120.717C117.763 120.588 128.444 120.493 141.614 120.493C154.783 120.493 165.455 120.596 165.455 120.717Z" fill="#455A64"/>
<path d="M214.293 94.031H179.572V127.571H214.293V94.031Z" fill="#455A64"/>
<path d="M182.269 124.699L191.872 107.438L199.728 118.472L204.5 112.616L211.597 124.699H182.269Z" fill="#72B8F3"/>
<path d="M203.069 104.084C203.069 104.578 202.923 105.06 202.649 105.47C202.374 105.88 201.984 106.2 201.527 106.388C201.071 106.577 200.569 106.627 200.084 106.53C199.6 106.434 199.155 106.197 198.805 105.848C198.456 105.499 198.218 105.055 198.122 104.571C198.025 104.087 198.075 103.586 198.264 103.13C198.453 102.674 198.773 102.285 199.184 102.011C199.595 101.737 200.078 101.59 200.572 101.59C201.234 101.59 201.869 101.853 202.338 102.321C202.806 102.789 203.069 103.423 203.069 104.084V104.084Z" fill="#72B8F3"/>
<path d="M211.597 124.793C211.597 124.793 211.597 124.742 211.597 124.656V124.26C211.597 123.907 211.597 123.4 211.597 122.755C211.597 121.422 211.597 119.504 211.554 117.062C211.554 112.16 211.511 105.185 211.485 96.8087L211.623 96.9463H182.294L182.458 96.7829V104.308C182.458 106.779 182.458 109.187 182.458 111.532C182.458 116.228 182.458 120.674 182.458 124.759L182.32 124.613L203.526 124.69H209.512H211.097H209.538H203.586L182.286 124.767H182.139V124.621C182.139 120.536 182.139 116.09 182.139 111.394V104.17C182.139 102.941 182.139 101.694 182.139 100.438V96.6453C181.993 96.7915 182.346 96.4389 182.312 96.4819H211.64H211.752V96.6281C211.752 105.039 211.692 112.048 211.674 116.967C211.674 119.392 211.674 121.31 211.674 122.635C211.674 123.271 211.674 123.761 211.674 124.114C211.674 124.269 211.674 124.389 211.674 124.492C211.674 124.595 211.605 124.793 211.597 124.793Z" fill="#263238"/>
<path d="M153.267 23.7432H104.206V71.1292H153.267V23.7432Z" fill="#72B8F3"/>
<path d="M108.013 67.0786L121.579 42.689L132.681 58.2808L139.426 49.999L149.46 67.0786H108.013Z" fill="#FAFAFA"/>
<path d="M133.879 41.4763C135.829 41.4763 137.41 39.8977 137.41 37.9503C137.41 36.003 135.829 34.4243 133.879 34.4243C131.928 34.4243 130.347 36.003 130.347 37.9503C130.347 39.8977 131.928 41.4763 133.879 41.4763Z" fill="#FAFAFA"/>
<path d="M149.46 67.2076C149.457 67.1445 149.457 67.0814 149.46 67.0184C149.46 66.8722 149.46 66.6916 149.46 66.4594C149.46 65.9606 149.46 65.2468 149.46 64.3266C149.46 62.4518 149.46 59.7342 149.409 56.277C149.409 49.397 149.348 39.4984 149.305 27.6648L149.503 27.8712H108.056C108.004 27.9228 108.495 27.4326 108.289 27.6476V33.0054C108.289 34.777 108.289 36.54 108.289 38.2772V48.494C108.289 55.1246 108.289 61.394 108.289 67.1732L108.09 66.9668L138.056 67.0786L146.506 67.1302H148.754H149.331H148.771H146.566L138.16 67.1818L108.065 67.285H107.858V67.0786C107.858 61.308 107.858 55.0386 107.858 48.3994V38.3116C107.858 36.5916 107.858 34.8114 107.858 33.0398V27.682L108.099 27.4412H149.546H149.745V27.639C149.701 39.5328 149.667 49.4314 149.641 56.3802C149.641 59.8202 149.641 62.5206 149.589 64.3868C149.589 65.2898 149.589 65.9864 149.589 66.4766C149.589 66.7002 149.589 66.8722 149.589 67.0098C149.554 67.0803 149.511 67.1467 149.46 67.2076Z" fill="#FAFAFA"/>
<path d="M117.867 46.5161C119.873 44.2352 121.756 41.8496 123.508 39.3695C125.532 36.1789 125.231 35.9811 124.843 35.8005C123.75 35.3103 121.071 41.2701 120.907 39.6361C120.743 38.0021 125.033 32.7561 123.862 32.2831C122.346 31.6725 119.65 37.9677 119.383 38.4837C119.116 38.9997 118.375 38.6127 118.633 38.1569C119.021 37.5119 122.862 30.5975 121.381 29.9783C120.52 29.6429 120.115 31.1995 120.115 31.1995C120.115 31.1995 116.988 37.9505 116.299 37.6323C115.61 37.3141 117.298 33.2893 117.97 31.9735C118.642 30.6577 118.289 29.8149 117.479 29.9869C116.919 30.1073 114.774 34.0805 114.146 35.3963C113.517 36.7121 111.846 40.3585 111.226 37.8559C110.606 35.3533 109.21 33.6591 108.521 33.4613C107.832 33.2635 107.333 34.1665 107.823 34.7943C108.288 35.5303 108.65 36.3259 108.9 37.1593C109.133 37.8167 109.252 38.5088 109.253 39.2061C109.253 39.8167 109.253 40.3499 109.202 40.8315L108.96 45.9485L114.818 49.9561L117.867 46.5161Z" fill="#B78876"/>
<path d="M48.96 203.38L54.9893 296.114L69.1065 294.54C69.1065 294.54 69.4511 204.094 68.7879 204.145C68.1246 204.197 48.96 203.38 48.96 203.38Z" fill="#B78876"/>
<path d="M18.2618 200.68L2.396 292.657L14.937 294.557L36.8924 205.049L18.2618 200.68Z" fill="#B78876"/>
<path d="M38.1587 45.9999L38.064 77.8972L51.7678 78.5509L52.164 70.8109C52.164 70.8109 57.0305 71.7741 58.2881 67.2591C59.0891 64.3781 58.891 42.0955 58.891 42.0955L38.1587 45.9999Z" fill="#B78876"/>
<path d="M61.9832 45.2259C61.0616 47.1351 56.6602 50.6181 56.6602 50.6181L54.6791 55.9329C52.9564 54.5913 50.6395 54.6687 50.2002 57.6529C49.8815 59.8459 52.6033 60.2845 52.6033 60.2845C51.0184 62.9763 49.9418 65.1607 47.6334 67.7235C45.1355 70.4927 43.7402 70.7765 41.027 70.8195H38.0381C38.0381 70.8195 31.9313 65.7197 33.1372 52.2865C34.343 38.8533 45.3681 41.3903 49.3302 39.3865C49.8212 39.2059 65.0668 38.8619 61.9832 45.2259Z" fill="#263238"/>
<path d="M32.8442 54.9525C31.6863 54.3286 30.367 54.0671 29.0582 54.2021C27.7494 54.3371 26.5115 54.8622 25.5057 55.7092C23.5332 57.4292 22.8183 60.1555 22.336 62.7355C21.8536 65.3155 21.4746 68.0244 19.8726 70.1142C19.4055 70.6047 19.0526 71.192 18.839 71.8342C18.7733 72.3154 18.8776 72.8044 19.1338 73.2171C19.39 73.6298 19.7822 73.9406 20.2429 74.096C20.7073 74.2372 21.199 74.264 21.676 74.1742C22.153 74.0843 22.6011 73.8805 22.982 73.5801C23.7489 72.9726 24.3429 72.1749 24.7046 71.2667C24.7145 71.6706 24.8106 72.0677 24.9865 72.4316C25.1625 72.7954 25.4142 73.1176 25.7249 73.3765C26.0355 73.6354 26.398 73.8251 26.788 73.9328C27.178 74.0406 27.5865 74.064 27.9863 74.0014C29.5453 73.6746 30.4842 72.0922 30.9838 70.5614C31.6013 68.7481 31.8559 66.8312 31.7331 64.9198C31.6039 63.1568 31.1646 61.3938 31.4575 59.648C31.7503 57.9022 33.1285 56.1564 34.9028 56.208" fill="#263238"/>
<path d="M54.6789 55.9329C54.6789 55.9329 55.4197 59.9147 53.5678 60.3189C52.9824 60.3931 52.3877 60.31 51.8452 60.0781L49.9847 64.1889C49.9847 64.1889 48.796 70.0971 52.2069 70.8023C55.3594 71.4473 58.6325 71.0259 58.9512 66.0379L59.0459 62.4345C59.0459 62.4345 56.5394 63.0021 56.2983 61.8583C56.0571 60.7145 55.8504 52.8799 55.8504 52.8799L54.6789 55.9329Z" fill="#263238"/>
<path d="M19.5797 66.511C19.1979 66.5128 18.8267 66.6363 18.5202 66.8636C18.3524 66.9942 18.2208 67.1655 18.1379 67.3611C18.055 67.5568 18.0235 67.7703 18.0465 67.9816C18.0729 68.2551 18.1856 68.5131 18.3682 68.7187C18.5508 68.9242 18.794 69.0666 19.0629 69.1254C19.3996 69.1723 19.7428 69.1266 20.0554 68.9932C20.3681 68.8599 20.6384 68.6439 20.8372 68.3686C21.3343 67.7173 21.676 66.9614 21.8364 66.1584C22.2326 64.4384 21.9914 62.4862 22.0345 60.4136C22.034 59.3812 22.2027 58.3557 22.5341 57.3778C22.8758 56.4645 23.4414 55.6514 24.1792 55.0128C25.4275 53.9343 27.0437 53.3769 28.6926 53.4562C29.783 53.508 30.8482 53.8018 31.8106 54.3162C32.0708 54.4536 32.3212 54.6087 32.56 54.7806C32.715 54.901 32.8011 54.9698 32.7925 54.9784C32.7839 54.987 32.4222 54.772 31.7331 54.471C30.7745 54.0359 29.7368 53.8017 28.684 53.783C27.1299 53.7614 25.623 54.316 24.4548 55.3396C23.7762 55.9397 23.2581 56.6994 22.9475 57.5498C22.6364 58.4814 22.4793 59.4573 22.4824 60.4394C22.4824 62.469 22.6719 64.4728 22.2412 66.2702C22.055 67.1314 21.6718 67.9379 21.1215 68.6266C20.8794 68.9504 20.5532 69.2018 20.1781 69.3534C19.803 69.505 19.3934 69.5511 18.994 69.4866C18.6656 69.4088 18.3714 69.2268 18.1555 68.9678C17.9396 68.7088 17.8137 68.3869 17.7967 68.0504C17.7786 67.8025 17.8264 67.5542 17.9353 67.3307C18.0442 67.1072 18.2103 66.9163 18.4169 66.7776C18.5704 66.6355 18.7586 66.5361 18.9626 66.4893C19.1667 66.4426 19.3794 66.45 19.5797 66.511V66.511Z" fill="#263238"/>
<path d="M54.989 45.355C54.989 45.355 55.2733 45.398 55.7556 45.4152C56.439 45.4385 57.1164 45.2813 57.7195 44.9594C58.1509 44.7195 58.5213 44.3838 58.8021 43.9782C59.0829 43.5726 59.2665 43.108 59.3388 42.6202C59.4327 42.0534 59.3516 41.4715 59.1062 40.9518C58.8276 40.3929 58.4018 39.9202 57.8745 39.5844C56.8158 38.9442 55.5702 38.6833 54.343 38.8448C53.3207 38.9639 52.3097 39.1652 51.3198 39.4468C50.4009 39.7567 49.4386 39.9193 48.4688 39.9284C48.7117 39.8369 48.9625 39.7678 49.2181 39.722C49.6919 39.6016 50.3809 39.4038 51.2336 39.1372C52.2356 38.8115 53.2647 38.5755 54.3086 38.432C55.6331 38.2368 56.9841 38.5139 58.1243 39.2146C58.721 39.5901 59.1989 40.1269 59.5024 40.7626C59.7783 41.365 59.8653 42.0364 59.7522 42.689C59.6702 43.2393 59.4557 43.7615 59.1272 44.2109C58.7986 44.6603 58.3658 45.0233 57.8659 45.269C57.2105 45.5945 56.4727 45.7173 55.747 45.6216C55.4758 45.5985 55.2149 45.5068 54.989 45.355V45.355Z" fill="#263238"/>
<path d="M33.8174 63.5526H34.1964C34.5611 63.5402 34.9242 63.497 35.2816 63.4236C36.5878 63.1146 37.7922 62.4749 38.7787 61.566C40.1989 60.1719 41.3958 58.5678 42.3274 56.8102C43.4902 54.9096 44.7649 52.665 46.9441 51.16C49.1233 49.655 51.7331 49.397 53.9209 48.9584C55.8943 48.7031 57.783 48 59.4421 46.903C60.5316 46.1093 61.3231 44.9738 61.6901 43.678C61.8029 43.2023 61.8436 42.7124 61.8107 42.2246C61.9002 42.7132 61.8796 43.2156 61.7504 43.6952C61.4128 45.021 60.6242 46.1883 59.5196 46.9976C57.851 48.1255 55.9436 48.8525 53.9467 49.1218C51.759 49.569 49.218 49.8614 47.0561 51.3062C44.8941 52.751 43.6107 54.9956 42.4824 56.8962C41.5296 58.6587 40.3125 60.2654 38.8734 61.6606C37.8674 62.5794 36.633 63.212 35.2989 63.4924C34.8121 63.5965 34.311 63.6168 33.8174 63.5526V63.5526Z" fill="white"/>
<path d="M35.1782 66.9323L35.4539 66.7517C35.6433 66.6399 35.9104 66.4679 36.2463 66.2357C37.2052 65.589 38.102 64.8549 38.925 64.0427C40.1472 62.8389 41.1939 61.4696 42.0344 59.9749C42.9991 58.3065 43.6968 56.2339 45.1611 54.4881C46.6253 52.7423 48.8217 52.0027 50.6736 51.5039C52.3538 51.1432 54.0037 50.6544 55.609 50.0419C56.682 49.6103 57.653 48.9601 58.4601 48.1327C58.7426 47.8157 58.999 47.4763 59.2266 47.1179C59.0385 47.5019 58.7979 47.8578 58.5117 48.1757C57.7191 49.0369 56.7455 49.7124 55.6607 50.1537C54.0555 50.7861 52.4022 51.2894 50.7167 51.6587C48.8734 52.1661 46.7545 52.8885 45.2989 54.6085C43.8432 56.3285 43.1628 58.3753 42.1809 60.0609C41.3251 61.5616 40.2576 62.9315 39.0112 64.1287C38.1783 64.9397 37.2666 65.6657 36.2893 66.2959C35.9302 66.527 35.5593 66.7394 35.1782 66.9323V66.9323Z" fill="white"/>
<path d="M26.1429 73.1417C26.3028 72.8945 26.4494 72.639 26.5822 72.3763C26.927 71.6529 27.1316 70.8709 27.1851 70.0715C27.2538 68.8873 27.1493 67.6995 26.875 66.5455C26.5278 65.1287 26.2632 63.6929 26.0826 62.2455C25.9023 60.7571 26.2042 59.2501 26.9439 57.9455C27.6086 56.9192 28.6204 56.1654 29.7949 55.8213C30.5746 55.5772 31.4011 55.5212 32.2067 55.6579C32.5036 55.7068 32.7931 55.7935 33.068 55.9159C33.068 55.9159 32.7665 55.8213 32.2067 55.7267C31.4139 55.6148 30.606 55.6884 29.8466 55.9417C28.7064 56.2946 27.7274 57.0376 27.0817 58.0401C26.3731 59.3118 26.0866 60.7751 26.2635 62.2197C26.4402 63.6665 26.6991 65.1021 27.0387 66.5197C27.3034 67.6926 27.3962 68.8977 27.3143 70.0973C27.246 70.9069 27.0208 71.6955 26.6511 72.4193C26.5128 72.6805 26.3421 72.9232 26.1429 73.1417V73.1417Z" fill="white"/>
<path d="M20.5356 73.9759C20.8716 73.9891 21.2023 73.8891 21.4745 73.6921C22.1645 73.0933 22.6544 72.298 22.8785 71.4131C23.2932 70.1206 23.5562 68.7844 23.6623 67.4313C23.8173 65.9091 23.8604 64.2149 24.1446 62.4605C24.3589 60.7914 24.9478 59.1922 25.8673 57.7821C26.6362 56.6212 27.7882 55.7661 29.1231 55.3655C30.019 55.095 30.9749 55.095 31.8708 55.3655C32.1967 55.4579 32.5051 55.6032 32.7838 55.7955C32.4788 55.653 32.1653 55.5295 31.845 55.4257C30.9601 55.1952 30.0277 55.2221 29.1576 55.5031C27.861 55.9112 26.7467 56.7563 26.0051 57.8939C25.0952 59.2836 24.5067 60.8583 24.2824 62.5035C24.0068 64.2235 23.9551 65.9435 23.7915 67.4657C23.6647 68.8309 23.3755 70.1763 22.9302 71.4733C22.6897 72.377 22.1679 73.1811 21.44 73.7695C21.3104 73.8618 21.1638 73.9276 21.0085 73.963C20.8533 73.9984 20.6926 74.0028 20.5356 73.9759V73.9759Z" fill="white"/>
<path d="M32.9044 57.7993C32.7752 57.7993 32.5685 57.008 32.4393 55.9932C32.3461 55.425 32.3143 54.8483 32.3445 54.2732L32.4306 54.3593C32.4995 54.3163 32.4306 54.3593 32.4306 54.3593C32.4306 54.3593 32.4306 54.3593 32.4306 54.4109C32.4306 54.4625 32.4306 54.4109 32.3531 54.4109C32.2756 54.4109 32.2584 54.2475 32.4565 54.1873L32.4995 54.2819C32.6713 54.8159 32.7867 55.3664 32.8441 55.9244C33.0108 56.5361 33.0315 57.1782 32.9044 57.7993V57.7993Z" fill="#72B8F3"/>
<path d="M24.4034 147.66L10.4067 217.028L35.8505 221.345L45.0151 171.568L48.9256 221.345L72.483 218.009L66.4537 144.177L24.4034 147.66Z" fill="#F5F5F5"/>
<path d="M59.0631 170.7C58.7046 170.786 58.3378 170.832 57.9692 170.838L54.9804 171.061C52.4567 171.25 48.951 171.526 45.1267 171.921C41.3024 172.317 37.8226 172.712 35.3075 173.022L32.3359 173.383C31.9724 173.449 31.6026 173.475 31.2334 173.461C31.5826 173.34 31.9435 173.257 32.3101 173.211C32.9991 173.074 34.0327 172.902 35.2644 172.712C37.7709 172.317 41.2421 171.852 45.0836 171.474C48.9252 171.096 52.4308 170.872 54.9631 170.769C56.2207 170.709 57.2457 170.683 57.9606 170.683C58.3275 170.646 58.6974 170.652 59.0631 170.7V170.7Z" fill="#263238"/>
<path d="M69.7783 184.933C69.7783 185.251 73.4476 190.764 73.4476 190.764L71.613 191.581C71.613 191.581 75.5923 197.067 71.346 204.119L69.7783 184.933Z" fill="#72B8F3"/>
<path d="M18.5463 180.865C18.2449 181.063 14.0502 187.599 14.0502 187.599H14.8684C14.8684 187.599 9.97606 193.894 13.8004 200.189L18.5463 180.865Z" fill="#72B8F3"/>
<g opacity="0.2">
<path d="M69.7783 184.933C69.7783 185.251 73.4476 190.764 73.4476 190.764L71.613 191.581C71.613 191.581 75.5923 197.068 71.346 204.12L69.7783 184.933Z" fill="black"/>
<path d="M18.5463 180.865C18.2449 181.063 14.0502 187.599 14.0502 187.599H14.8684C14.8684 187.599 9.97606 193.894 13.8004 200.189L18.5463 180.865Z" fill="black"/>
</g>
<path d="M72.4224 213.648C72.1203 213.744 71.8081 213.805 71.4922 213.829L68.9599 214.182L60.5963 215.325L52.25 216.564L49.7177 216.925C49.4094 216.991 49.0938 217.017 48.7788 217.002C49.0707 216.888 49.3739 216.804 49.6832 216.753C50.2775 216.624 51.1302 216.452 52.1983 216.246C54.3172 215.85 57.2716 215.386 60.536 214.887C63.8005 214.388 66.7721 214.078 68.9254 213.872C70.0021 213.769 70.872 213.691 71.5094 213.657C71.8122 213.616 72.1189 213.614 72.4224 213.648V213.648Z" fill="#263238"/>
<path d="M36.2466 218.249C35.9084 218.246 35.5723 218.197 35.2474 218.103L32.5687 217.536L23.7486 215.635L14.9113 213.803L12.2326 213.227C11.9002 213.174 11.5741 213.088 11.2593 212.969C11.5979 212.956 11.9368 212.988 12.267 213.064C12.9044 213.15 13.826 213.296 14.9716 213.494C17.2455 213.881 20.3894 214.465 23.8434 215.214C27.2973 215.962 30.3981 216.676 32.6462 217.243C33.7659 217.527 34.6703 217.768 35.2905 217.948C35.6184 218.017 35.9387 218.118 36.2466 218.249Z" fill="#263238"/>
<path d="M42.8445 173.418C42.7239 173.418 42.6895 173.082 42.767 172.738C42.8445 172.394 42.9995 172.128 43.1201 172.153C43.2407 172.179 43.2752 172.48 43.2063 172.833C43.1374 173.185 42.9306 173.443 42.8445 173.418Z" fill="#263238"/>
<path d="M41.7417 178.5C41.6212 178.5 41.647 177.881 41.802 177.184C41.9571 176.488 42.1724 175.929 42.293 175.954C42.4136 175.98 42.3877 176.574 42.2413 177.279C42.0949 177.984 41.8623 178.526 41.7417 178.5Z" fill="#263238"/>
<path d="M40.6392 183.6C40.5186 183.6 40.5445 182.989 40.6995 182.284C40.8545 181.579 41.0699 181.037 41.1905 181.063C41.311 181.089 41.2852 181.673 41.1302 182.379C40.9751 183.084 40.7598 183.6 40.6392 183.6Z" fill="#263238"/>
<path d="M39.5368 188.674C39.4163 188.674 39.4421 188.055 39.5885 187.35C39.7349 186.644 39.9675 186.103 40.0881 186.128C40.2087 186.154 40.1828 186.748 40.0278 187.444C39.8728 188.141 39.6574 188.7 39.5368 188.674Z" fill="#263238"/>
<path d="M38.4343 193.757C38.3137 193.757 38.3396 193.137 38.486 192.441C38.6324 191.744 38.865 191.185 38.9856 191.211C39.1061 191.237 39.0803 191.83 38.9253 192.535C38.7702 193.241 38.5549 193.782 38.4343 193.757Z" fill="#263238"/>
<path d="M37.3316 198.839C37.211 198.839 37.2282 198.22 37.3833 197.523C37.5383 196.827 37.7622 196.268 37.8828 196.302C38.0034 196.337 37.9776 196.913 37.8225 197.618C37.6675 198.323 37.4522 198.865 37.3316 198.839Z" fill="#263238"/>
<path d="M36.2208 203.922C36.1002 203.922 36.126 203.311 36.281 202.606C36.4361 201.901 36.6514 201.359 36.7806 201.385C36.9098 201.41 36.8754 201.995 36.7203 202.7C36.5653 203.406 36.35 203.947 36.2208 203.922Z" fill="#263238"/>
<path d="M35.1182 209.013C34.9976 209.013 35.0235 208.394 35.1785 207.689C35.3335 206.983 35.5489 206.442 35.6695 206.467C35.7901 206.493 35.7728 207.087 35.6178 207.783C35.4627 208.48 35.2388 209.039 35.1182 209.013Z" fill="#263238"/>
<path d="M34.0157 214.096C33.8951 214.096 33.9209 213.476 34.076 212.78C34.231 212.083 34.4463 211.524 34.5669 211.55C34.6875 211.576 34.6617 212.169 34.5152 212.874C34.3688 213.58 34.1363 214.121 34.0157 214.096Z" fill="#263238"/>
<path d="M33.1887 217.897C33.0681 217.897 33.0337 217.57 33.1112 217.217C33.1887 216.865 33.3438 216.615 33.4644 216.641C33.5849 216.667 33.628 216.968 33.5505 217.321C33.473 217.673 33.3093 217.923 33.1887 217.897Z" fill="#263238"/>
<path d="M64.903 150.602C64.7738 150.602 64.6618 150.327 64.6359 149.974C64.6101 149.621 64.6962 149.329 64.8168 149.321C64.9374 149.312 65.058 149.587 65.0838 149.948C65.1097 150.309 65.0235 150.593 64.903 150.602Z" fill="#263238"/>
<path d="M65.2477 155.641C65.1271 155.641 64.9893 155.091 64.9376 154.403C64.8859 153.715 64.9376 153.13 65.0754 153.122C65.2133 153.113 65.3338 153.672 65.3855 154.369C65.4372 155.065 65.3683 155.633 65.2477 155.641Z" fill="#263238"/>
<path d="M65.6092 160.681C65.4886 160.681 65.3508 160.131 65.2991 159.443C65.2474 158.755 65.2991 158.17 65.4283 158.161C65.5575 158.153 65.6953 158.712 65.747 159.408C65.7987 160.105 65.7384 160.672 65.6092 160.681Z" fill="#263238"/>
<path d="M65.9972 165.721C65.8766 165.721 65.7302 165.17 65.6785 164.474C65.6268 163.777 65.6785 163.209 65.8077 163.201C65.9369 163.192 66.0747 163.743 66.1264 164.439C66.1781 165.136 66.1178 165.712 65.9972 165.721Z" fill="#263238"/>
<path d="M66.4017 170.752C66.2812 170.752 66.1347 170.21 66.0744 169.513C66.0141 168.817 66.0744 168.249 66.195 168.24C66.3156 168.232 66.4707 168.782 66.5223 169.479C66.574 170.175 66.5223 170.743 66.4017 170.752Z" fill="#263238"/>
<path d="M66.8238 175.791C66.7032 175.791 66.5568 175.241 66.4965 174.544C66.4362 173.848 66.4965 173.28 66.6085 173.271C66.7204 173.263 66.8841 173.813 66.9444 174.51C67.0047 175.206 66.9444 175.774 66.8238 175.791Z" fill="#263238"/>
<path d="M67.2629 180.822C67.1423 180.822 66.9959 180.28 66.927 179.584C66.8581 178.887 66.927 178.311 67.0389 178.302C67.1509 178.294 67.3146 178.844 67.3749 179.541C67.4352 180.237 67.3921 180.805 67.2629 180.822Z" fill="#263238"/>
<path d="M67.728 185.853C67.5988 185.853 67.4524 185.311 67.3835 184.615C67.3146 183.918 67.3835 183.351 67.4955 183.333C67.6075 183.316 67.7711 183.875 67.8314 184.572C67.8917 185.268 67.8486 185.836 67.728 185.853Z" fill="#263238"/>
<path d="M68.2019 190.876C68.0813 190.876 67.9263 190.334 67.866 189.646C67.8057 188.958 67.866 188.373 67.9607 188.364C68.0555 188.356 68.245 188.906 68.3053 189.603C68.3656 190.299 68.3311 190.867 68.2019 190.876Z" fill="#263238"/>
<path d="M68.7016 195.907C68.581 195.907 68.4259 195.365 68.357 194.668C68.2881 193.972 68.357 193.404 68.4518 193.395C68.5465 193.387 68.736 193.937 68.8049 194.625C68.8738 195.313 68.8308 195.898 68.7016 195.907Z" fill="#263238"/>
<path d="M69.2183 200.929C69.0978 200.929 68.9427 200.396 68.8652 199.699C68.7877 199.003 68.8652 198.435 68.9599 198.418C69.0547 198.401 69.2442 198.96 69.3131 199.648C69.382 200.336 69.3475 200.92 69.2183 200.929Z" fill="#263238"/>
<path d="M69.7608 205.96C69.6316 205.96 69.4766 205.427 69.3991 204.73C69.3216 204.033 69.3991 203.466 69.4852 203.449C69.5714 203.431 69.7695 203.99 69.847 204.687C69.9245 205.384 69.8814 205.96 69.7608 205.96Z" fill="#263238"/>
<path d="M70.3124 210.974C70.1918 210.974 70.0282 210.441 69.9507 209.744C69.8731 209.047 69.9076 208.48 70.0368 208.463C70.166 208.445 70.321 209.004 70.3986 209.692C70.4761 210.38 70.4416 210.957 70.3124 210.974Z" fill="#263238"/>
<path d="M70.7428 214.766C70.6222 214.766 70.493 214.508 70.45 214.147C70.4069 213.786 70.45 213.502 70.5964 213.485C70.7428 213.468 70.8548 213.743 70.8979 214.104C70.9409 214.465 70.872 214.749 70.7428 214.766Z" fill="#263238"/>
<path d="M2.63721 289.93L4.92836 277.968L18.7527 280.393L15.4194 292.588L2.63721 289.93Z" fill="#F0F0F0"/>
<path d="M2.63726 289.93L0.509766 299.39L15.1783 301.205L15.7037 291.831L2.63726 289.93Z" fill="#455A64"/>
<path d="M9.26091 290.395C9.08578 293.302 8.61537 296.183 7.85693 298.995C7.87687 297.534 8.04133 296.08 8.3479 294.652C8.50755 293.206 8.81344 291.779 9.26091 290.395V290.395Z" fill="#263238"/>
<path d="M15.2388 300.173C14.5229 300.15 13.8108 300.06 13.1113 299.906L8.02944 299.046C6.03976 298.72 4.23958 298.384 2.94758 298.092C2.23911 297.982 1.54554 297.791 0.880371 297.524C1.59627 297.547 2.3085 297.636 3.00787 297.791L8.09835 298.651C10.088 298.978 11.8796 299.313 13.1716 299.597C13.8799 299.712 14.5733 299.905 15.2388 300.173V300.173Z" fill="#263238"/>
<path d="M18.2102 282.371C17.5292 282.373 16.8502 282.298 16.1861 282.147C14.9458 281.958 13.2404 281.64 11.3626 281.287L6.54778 280.367C5.86994 280.283 5.20296 280.128 4.55811 279.903C5.239 279.877 5.92064 279.926 6.59085 280.049C7.83979 280.212 9.56246 280.488 11.4402 280.84C13.3179 281.193 15.0233 281.563 16.2464 281.838C16.9187 281.943 17.5772 282.122 18.2102 282.371V282.371Z" fill="#263238"/>
<path d="M17.6419 283.85C16.9651 283.861 16.2892 283.798 15.6263 283.661C14.3946 283.489 12.6978 283.214 10.8287 282.896C8.95962 282.577 7.26279 282.251 6.04831 282.036C5.37704 281.943 4.71828 281.776 4.08447 281.537C4.75837 281.526 5.43139 281.59 6.09138 281.726C7.3317 281.898 9.02854 282.165 10.9062 282.491C12.784 282.818 14.4635 283.136 15.6866 283.394C16.3539 283.47 17.01 283.623 17.6419 283.85V283.85Z" fill="#72B8F3"/>
<path d="M55.0322 298.118C54.8685 297.06 54.1191 282.638 54.1191 282.638L69.4595 281.459L69.9935 296.346L55.0322 298.118Z" fill="#F0F0F0"/>
<path d="M71.1219 297.782L70.898 296.062L55.0322 298.083L55.7041 303.63L56.6946 303.579C61.0788 303.269 78.9859 301.721 81.7938 300.483C84.9205 299.124 71.1219 297.782 71.1219 297.782Z" fill="#455A64"/>
<path d="M61.4146 302.83C61.0168 301.527 60.148 300.417 58.977 299.717C57.8298 299.019 56.4629 298.774 55.144 299.029L55.6953 303.441L61.4146 302.83Z" fill="#455A64"/>
<path d="M77.892 298.668C77.892 298.668 82.7672 299.442 82.2762 300.285C81.7853 301.128 63.749 303.372 55.7041 303.665V303.312L76.7637 300.878C76.7637 300.878 76.979 298.84 77.892 298.668Z" fill="#455A64"/>
<path d="M55.437 303.338H55.7126L56.4964 303.286L59.3819 303.054C61.8195 302.839 65.1787 302.504 68.8566 302.039C72.5345 301.575 75.9109 301.093 78.3313 300.715L81.1909 300.233L81.9661 300.096C82.0576 300.084 82.1473 300.061 82.2331 300.027H81.9575L81.1736 300.139L78.314 300.551C75.8937 300.904 72.5517 301.368 68.8394 301.824C65.127 302.28 61.7764 302.641 59.3647 302.891L56.4792 303.192L55.704 303.278C55.6127 303.286 55.5229 303.306 55.437 303.338Z" fill="#263238"/>
<path d="M76.7723 301.119C76.8443 300.629 76.9685 300.147 77.1427 299.683C77.38 299.246 77.6692 298.838 78.004 298.47C77.5326 298.708 77.1671 299.113 76.979 299.605C76.7314 300.069 76.6581 300.606 76.7723 301.119V301.119Z" fill="#263238"/>
<path d="M71.8197 299.339C71.8713 299.339 72.0608 299.063 72.2417 298.676C72.3832 298.447 72.4687 298.188 72.4915 297.92C72.4398 297.92 72.2503 298.195 72.0694 298.59C71.8886 298.986 71.768 299.313 71.8197 299.339Z" fill="#263238"/>
<path d="M70.4931 298.84C70.4931 298.84 70.7601 298.677 71.0013 298.401C71.2425 298.126 71.4061 297.868 71.3631 297.834C71.32 297.799 71.0961 297.997 70.8549 298.272C70.6137 298.548 70.4156 298.788 70.4931 298.84Z" fill="#263238"/>
<path d="M69.4594 297.438C68.5725 297.753 67.8399 298.395 67.4117 299.232C66.9836 300.069 66.8923 301.038 67.1567 301.94C67.421 302.842 68.0209 303.609 68.8334 304.083C69.6459 304.558 70.6095 304.704 71.5265 304.492C72.4436 304.28 73.2446 303.726 73.7655 302.943C74.2864 302.16 74.4876 301.208 74.3279 300.282C74.1682 299.355 73.6597 298.525 72.9066 297.961C72.1535 297.398 71.2129 297.143 70.2777 297.249C69.9944 297.252 69.7151 297.316 69.4594 297.438V297.438Z" fill="#263238"/>
<path d="M69.0547 296.423C69.3485 296.566 69.6788 296.617 70.0021 296.569C70.3317 296.581 70.6576 296.497 70.941 296.329C70.6243 296.316 70.307 296.333 69.9935 296.38C69.68 296.36 69.3651 296.375 69.0547 296.423V296.423Z" fill="#263238"/>
<path d="M72.2158 297.894C72.5597 297.915 72.9046 297.872 73.2322 297.765C73.5929 297.673 73.9445 297.55 74.283 297.395C74.4914 297.308 74.6881 297.195 74.8687 297.06C74.9805 296.975 75.0572 296.853 75.0841 296.716C75.0895 296.638 75.073 296.561 75.0364 296.493C74.9999 296.424 74.9447 296.367 74.8773 296.329C74.4633 296.191 74.0142 296.201 73.6071 296.358C73.1999 296.515 72.8603 296.809 72.6465 297.189C72.51 297.408 72.4247 297.655 72.3967 297.911C72.376 298.002 72.376 298.096 72.3967 298.186C72.4586 297.861 72.5781 297.549 72.7498 297.266C72.9472 296.971 73.2251 296.738 73.5509 296.595C73.7385 296.504 73.9426 296.45 74.1512 296.438C74.3597 296.427 74.5686 296.457 74.7654 296.526C74.9463 296.63 74.9032 296.819 74.7654 296.948C74.5958 297.072 74.414 297.179 74.2227 297.266C73.8968 297.424 73.56 297.56 73.215 297.67C72.569 297.817 72.2158 297.868 72.2158 297.894Z" fill="#263238"/>
<path d="M72.4571 297.911C72.5406 297.68 72.5406 297.428 72.4571 297.197C72.3906 296.937 72.2637 296.695 72.0867 296.492C71.9838 296.35 71.8454 296.237 71.6853 296.164C71.5251 296.092 71.3487 296.063 71.1737 296.079C71.0752 296.116 70.9946 296.189 70.9482 296.284C70.9018 296.378 70.8931 296.486 70.9239 296.587C70.9684 296.744 71.0446 296.89 71.1479 297.017C71.3099 297.224 71.4981 297.409 71.7077 297.567C71.8864 297.731 72.1021 297.849 72.3365 297.911C72.3365 297.911 72.1126 297.756 71.7939 297.464C71.6086 297.298 71.4412 297.114 71.2943 296.913C71.1306 296.716 70.9842 296.337 71.234 296.26C71.3735 296.26 71.511 296.292 71.6364 296.353C71.7617 296.414 71.8715 296.503 71.9575 296.612C72.1212 296.792 72.2472 297.003 72.3279 297.232C72.3861 297.455 72.4293 297.682 72.4571 297.911V297.911Z" fill="#263238"/>
<path d="M55.2217 298.978C55.2217 298.978 55.6696 298.874 56.3931 298.874C57.3369 298.859 58.2656 299.112 59.0708 299.604C59.876 300.096 60.5246 300.806 60.9409 301.652C61.2682 302.297 61.3458 302.753 61.3802 302.744C61.4147 302.736 61.3802 302.624 61.3802 302.426C61.3173 302.13 61.222 301.842 61.096 301.566C60.6983 300.675 60.0393 299.925 59.2058 299.415C58.3723 298.905 57.4036 298.66 56.4275 298.711C56.1368 298.725 55.8482 298.768 55.5662 298.84C55.4454 298.869 55.3294 298.916 55.2217 298.978Z" fill="#263238"/>
<path d="M63.2148 301.042C63.9921 301.126 64.7772 301.106 65.549 300.981C66.3294 300.924 67.0992 300.768 67.8402 300.517C67.8402 300.457 66.798 300.646 65.5232 300.792C64.2484 300.938 63.2148 300.99 63.2148 301.042Z" fill="#263238"/>
<path d="M60.1572 301.42C60.1572 301.472 60.2692 301.635 60.407 301.859C60.5448 302.082 60.6223 302.28 60.6826 302.271C60.7429 302.263 60.7257 302.013 60.5707 301.755C60.4156 301.497 60.1572 301.42 60.1572 301.42Z" fill="#263238"/>
<path d="M58.7705 300.121C58.7705 300.164 58.8566 300.311 59.0461 300.457C59.2356 300.603 59.3993 300.689 59.4337 300.646C59.4682 300.603 59.3476 300.448 59.1581 300.302C58.9686 300.156 58.805 300.078 58.7705 300.121Z" fill="#263238"/>
<path d="M57.0131 299.7C57.0131 299.752 57.2457 299.7 57.4869 299.777C57.728 299.855 57.9089 299.932 57.952 299.889C57.9951 299.846 57.8228 299.648 57.5213 299.588C57.2199 299.528 56.9959 299.614 57.0131 299.7Z" fill="#263238"/>
<path d="M55.79 299.502C55.79 299.554 55.8762 299.622 56.014 299.657C56.1518 299.691 56.2724 299.657 56.2896 299.657C56.3068 299.657 56.1949 299.536 56.0571 299.502C55.9193 299.468 55.7987 299.45 55.79 299.502Z" fill="#263238"/>
<path d="M69.2613 284.031C66.7425 284.374 64.2059 284.572 61.6643 284.624C59.129 284.832 56.5832 284.883 54.0415 284.779C56.5634 284.436 59.1026 284.235 61.6471 284.177C64.1799 283.975 66.7226 283.926 69.2613 284.031V284.031Z" fill="#263238"/>
<path d="M69.2615 285.94C66.7876 286.308 64.2939 286.53 61.7937 286.602C59.2993 286.82 56.7943 286.892 54.2915 286.817C56.7683 286.449 59.2648 286.227 61.7679 286.155C64.2591 285.932 66.7616 285.86 69.2615 285.94Z" fill="#72B8F3"/>
<path d="M22.2587 117.148L23.2406 136.068L23.4042 152.649L67.1169 149.449L65.2392 118.945C64.9549 111.807 64.8171 104.368 64.6449 97.7806C67.6251 96.654 95.3859 86.162 97.2894 85.8868C99.1929 85.6116 117.479 52.0372 117.479 52.0372C118.056 48.0124 107.143 45.4238 107.143 45.4238C107.143 45.4238 90.1662 71.0002 88.7277 72.4364C87.2893 73.8726 60.7 76.6676 60.6913 76.6676C52.5345 74.8272 31.8625 74.5262 26.8754 78.1984C26.8323 78.2242 15.523 83.84 22.2587 117.148Z" fill="#455A64"/>
<path d="M91.0705 78.2156C90.4357 77.3764 89.9652 76.4253 89.6837 75.412C89.2749 74.4559 88.9408 73.4697 88.6846 72.4622C89.3207 73.3004 89.7914 74.2519 90.0713 75.2658C90.4788 76.2223 90.8128 77.2084 91.0705 78.2156V78.2156Z" fill="#263238"/>
<path d="M92.974 76.0397C92.1654 75.5723 91.4039 75.028 90.7001 74.4143C89.9069 73.9015 89.2221 73.2382 88.6846 72.4622C89.4939 72.9285 90.2555 73.4729 90.9585 74.0876C91.7541 74.5974 92.4395 75.2612 92.974 76.0397V76.0397Z" fill="#263238"/>
<path d="M65.015 76.3322C64.1431 76.4811 63.2804 76.6792 62.431 76.9256C60.4236 77.5862 58.6796 78.8689 57.4527 80.5873C56.2258 82.3057 55.58 84.3701 55.6092 86.4802C55.6512 87.3444 55.7403 88.2057 55.8763 89.0602C55.75 88.8542 55.6624 88.6269 55.6179 88.3894C55.4455 87.7577 55.3444 87.1086 55.3164 86.4544C55.2066 84.2637 55.8409 82.1002 57.1166 80.3145C58.3923 78.5288 60.2346 77.2256 62.3449 76.616C62.9722 76.4258 63.6198 76.3103 64.2743 76.272C64.5228 76.2455 64.7741 76.2659 65.015 76.3322Z" fill="#263238"/>
<path d="M51.9572 75.7215C49.6445 75.9449 47.3206 76.0311 44.9976 75.9795C42.6768 76.0728 40.3524 76.0211 38.0381 75.8247C40.3508 75.6013 42.6747 75.5152 44.9976 75.5667C47.3185 75.4735 49.6429 75.5252 51.9572 75.7215V75.7215Z" fill="#263238"/>
<path d="M45.2733 91.9755C45.3912 92.1862 45.4948 92.4045 45.5834 92.6291C45.8365 93.268 46.2109 93.852 46.6859 94.3491C47.0396 94.6809 47.4775 94.9099 47.9521 95.0113C48.229 95.0602 48.5133 95.047 48.7844 94.9727C49.0556 94.8983 49.3067 94.7646 49.5197 94.5813C50.0279 94.2115 50.4586 93.6697 51.1046 93.2569C51.8027 92.8378 52.6375 92.7081 53.4302 92.8957C54.2996 93.0813 55.0748 93.5689 55.6179 94.2717C56.1867 95.0567 56.436 96.0279 56.3156 96.9893C56.204 98.0085 55.766 98.9646 55.0667 99.7155C54.2931 100.436 53.4235 101.047 52.4827 101.53C51.5335 101.99 50.7618 102.748 50.2863 103.689C49.9842 104.76 49.8448 105.87 49.8729 106.982C49.8392 107.593 49.6993 108.192 49.4594 108.754C49.1917 109.323 48.8004 109.826 48.3138 110.225C47.8136 110.633 47.2209 110.913 46.5873 111.041C45.9538 111.168 45.2986 111.139 44.679 110.956C44.0557 110.771 43.4837 110.444 43.008 110.001C42.5676 109.555 42.2065 109.037 41.94 108.47C41.3973 107.421 40.9064 106.26 39.8555 105.968C38.8047 105.675 37.7281 106.26 36.5394 106.234C35.9514 106.211 35.3818 106.022 34.8959 105.691C34.41 105.359 34.0273 104.898 33.7918 104.359C33.5785 103.845 33.5107 103.282 33.5957 102.731C33.6808 102.181 33.9154 101.664 34.2741 101.238C34.6102 100.822 35.0541 100.507 35.5575 100.326C36.0169 100.163 36.4857 100.028 36.9615 99.9219C37.3957 99.8252 37.8096 99.6535 38.1846 99.4145C38.521 99.184 38.7555 98.8328 38.8392 98.4341C38.89 97.6152 38.7937 96.7939 38.5549 96.0089C38.4007 95.2713 38.4498 94.5058 38.697 93.794C38.9443 93.0821 39.3804 92.4507 39.9589 91.9669C40.3909 91.6045 40.8964 91.3399 41.4406 91.1915C41.9849 91.043 42.5549 91.0141 43.1114 91.1069C43.8096 91.2246 44.4654 91.5209 45.0149 91.9669C45.2086 92.1172 45.3772 92.2972 45.5145 92.5001C45.5145 92.5001 45.3422 92.3195 44.9633 92.0443C44.4095 91.6426 43.7641 91.3854 43.0855 91.2961C42.5588 91.22 42.0219 91.2574 41.5108 91.4058C40.9997 91.5541 40.5264 91.8099 40.1226 92.1561C39.5911 92.6172 39.1938 93.2127 38.9725 93.8801C38.7512 94.5474 38.7141 95.262 38.865 95.9487C39.1291 96.7818 39.2371 97.6564 39.1837 98.5287C39.0819 99.0135 38.8024 99.443 38.3999 99.7327C37.9906 100.002 37.5351 100.195 37.0562 100.3C36.1196 100.417 35.2492 100.844 34.5842 101.513C34.2736 101.883 34.0708 102.332 33.9979 102.81C33.925 103.287 33.9848 103.776 34.1707 104.222C34.3758 104.686 34.7076 105.083 35.128 105.367C35.5484 105.651 36.0405 105.812 36.548 105.83C37.5902 105.882 38.7014 105.245 39.9934 105.572C40.6003 105.77 41.1203 106.171 41.4662 106.707C41.7812 107.219 42.0687 107.747 42.3276 108.29C42.5737 108.811 42.9056 109.288 43.3095 109.7C43.7323 110.099 44.2425 110.393 44.7996 110.56C45.6253 110.79 46.5061 110.719 47.2841 110.36C48.0622 110 48.6867 109.376 49.046 108.599C49.2679 108.087 49.3962 107.54 49.425 106.982C49.3969 105.819 49.5509 104.658 49.8815 103.542C50.3956 102.524 51.2309 101.702 52.2587 101.203C53.1655 100.741 54.008 100.163 54.7652 99.4833C55.4113 98.795 55.8189 97.9177 55.928 96.9807C56.0588 96.1454 55.8637 95.2918 55.383 94.5958C54.9022 93.8999 54.1725 93.4145 53.344 93.2397C52.6292 93.0603 51.8726 93.1651 51.2338 93.5321C50.6394 93.9019 50.1915 94.3921 49.6575 94.8135C49.4128 95.0103 49.1281 95.1515 48.8231 95.2273C48.5182 95.303 48.2003 95.3115 47.8918 95.2521C47.3806 95.1383 46.9137 94.8783 46.5481 94.5039C46.074 93.9863 45.7106 93.3776 45.4801 92.7151C45.3939 92.4915 45.3336 92.3195 45.2992 92.2077C45.2647 92.0959 45.2647 91.9755 45.2733 91.9755Z" fill="#263238"/>
<path d="M66.2725 130.538C66.1544 130.595 66.0247 130.624 65.8935 130.624C65.5284 130.663 65.1594 130.646 64.7996 130.572C64.2187 130.448 63.6719 130.198 63.1975 129.841C62.5951 129.346 62.1147 128.719 61.7935 128.009C61.4635 127.182 60.9374 126.448 60.2604 125.868C59.4765 125.318 58.4171 125.61 57.3232 125.868C56.7308 126.002 56.1137 125.981 55.5317 125.808C54.918 125.605 54.3824 125.218 53.9985 124.698C53.5871 124.165 53.374 123.505 53.3955 122.832C53.426 122.148 53.6762 121.492 54.1089 120.961C54.5417 120.43 55.1341 120.052 55.7987 119.882C56.4188 119.693 57.0304 119.59 57.5213 119.366C57.7731 119.28 58.0014 119.136 58.1882 118.947C58.375 118.757 58.5153 118.527 58.598 118.274C58.7068 117.747 58.6861 117.201 58.5377 116.683C58.3998 116.147 58.3048 115.601 58.2535 115.049C58.2276 114.511 58.3096 113.973 58.4946 113.467C58.8242 112.558 59.4567 111.79 60.2862 111.291C60.9687 110.886 61.7602 110.703 62.5515 110.766C63.1548 110.802 63.7428 110.969 64.2742 111.257C64.594 111.428 64.8847 111.648 65.1355 111.91C65.2301 111.998 65.3113 112.1 65.3767 112.211C65.0075 111.903 64.6061 111.634 64.1794 111.411C63.6722 111.171 63.1212 111.037 62.5601 111.016C61.8265 110.983 61.0999 111.171 60.4757 111.558C59.7286 112.039 59.1645 112.757 58.8736 113.596C58.7088 114.056 58.6385 114.544 58.6669 115.032C58.7305 115.56 58.8312 116.083 58.9684 116.597C59.1391 117.179 59.1628 117.793 59.0373 118.386C58.9393 118.703 58.7694 118.992 58.5408 119.233C58.3122 119.473 58.0311 119.657 57.7194 119.771C56.548 120.252 55.1957 120.244 54.4464 121.233C54.0688 121.677 53.8531 122.236 53.8343 122.819C53.8156 123.401 53.9948 123.973 54.343 124.44C54.6736 124.885 55.1295 125.22 55.6522 125.404C56.1692 125.561 56.7183 125.582 57.2457 125.464C57.7835 125.348 58.3269 125.259 58.8736 125.197C59.4285 125.151 59.983 125.29 60.4499 125.593C61.1744 126.214 61.7312 127.006 62.0692 127.898C62.3563 128.581 62.7917 129.192 63.3439 129.686C63.7821 130.033 64.2861 130.288 64.8254 130.435C65.3022 130.524 65.7878 130.559 66.2725 130.538V130.538Z" fill="#263238"/>
<path d="M25.8416 78.7229C26.2238 79.0587 26.6687 79.3159 27.1508 79.4797C27.4288 79.5593 27.7217 79.5727 28.0059 79.5189C28.2901 79.4652 28.5577 79.3457 28.7873 79.1701C29.3848 78.6287 30.0116 78.1205 30.665 77.6479C31.1251 77.4185 31.6323 77.2991 32.1465 77.2991C32.6608 77.2991 33.168 77.4185 33.628 77.6479C34.1495 77.8881 34.6113 78.2405 34.9803 78.6799C35.3567 79.1608 35.6056 79.7287 35.7038 80.3311C35.8022 80.9723 35.7657 81.6269 35.5966 82.2532C35.4276 82.8796 35.1297 83.4638 34.7219 83.9689C33.8606 85.0439 32.5772 85.5943 31.4575 86.3167C30.9048 86.6508 30.4198 87.0855 30.0277 87.5981C29.6817 88.1107 29.4714 88.7024 29.4161 89.3181C29.2611 90.5479 29.4161 91.8379 28.951 93.0161C28.7339 93.5624 28.4015 94.0556 27.9764 94.4622C27.5513 94.8688 27.0435 95.1793 26.4876 95.3725C25.5089 95.694 24.4433 95.623 23.516 95.1747C22.7368 94.8509 22.1175 94.2326 21.7933 93.4547C21.7044 92.8444 21.7044 92.2245 21.7933 91.6143C21.8189 91.4339 21.801 91.2501 21.741 91.0781C21.6811 90.9061 21.5809 90.7508 21.4488 90.6253C21.2593 90.4619 21.1128 90.4275 21.1215 90.4017C21.2598 90.4167 21.3912 90.4703 21.5004 90.5565C21.6612 90.6792 21.7881 90.8406 21.8695 91.0255C21.9508 91.2105 21.9839 91.4131 21.9656 91.6143C21.9264 92.2068 21.9611 92.8019 22.0689 93.3859C22.3803 94.0888 22.9556 94.6416 23.671 94.9253C24.5232 95.3213 25.4962 95.3707 26.3842 95.0629C26.8856 94.8851 27.3425 94.6008 27.7231 94.2296C28.1038 93.8584 28.3993 93.4092 28.5892 92.9129C28.9941 91.8551 28.8562 90.6081 29.0027 89.3009C29.069 88.6143 29.3058 87.9551 29.6917 87.3831C30.1136 86.8207 30.6399 86.3448 31.2421 85.9813C32.4049 85.2417 33.6366 84.6999 34.4032 83.7367C34.7743 83.2798 35.0476 82.7517 35.2061 82.1852C35.3646 81.6186 35.405 81.0256 35.3248 80.4429C35.2419 79.9078 35.0257 79.4022 34.6961 78.9723C34.3729 78.5715 33.9637 78.2482 33.4988 78.0263C33.0887 77.8143 32.6349 77.7001 32.1731 77.6926C31.7113 77.6851 31.2541 77.7846 30.8373 77.9833C30.0879 78.3703 29.5798 79.0497 28.951 79.4367C28.6877 79.6185 28.3855 79.7365 28.0685 79.7813C27.7515 79.826 27.4284 79.7964 27.1249 79.6947C26.7485 79.5722 26.4063 79.363 26.1258 79.0841C26.0074 78.9843 25.9107 78.8614 25.8416 78.7229V78.7229Z" fill="#263238"/>
<path d="M80.2002 79.3079C80.3776 79.5777 80.5249 79.866 80.6395 80.1679C80.9635 80.945 81.5239 81.6008 82.2416 82.0427C82.481 82.1802 82.7478 82.2638 83.023 82.2875C83.2983 82.3113 83.5754 82.2747 83.835 82.1803C84.4227 81.8714 84.9529 81.4642 85.4026 80.9763C85.9947 80.415 86.7827 80.1065 87.599 80.1163C88.4726 80.1188 89.3185 80.4226 89.9936 80.9763C90.6721 81.5323 91.1201 82.3198 91.2511 83.1865C91.368 83.9796 91.2729 84.7896 90.9755 85.5343C90.7079 86.1907 90.2958 86.7786 89.7696 87.2543C89.2995 87.6579 88.7673 87.9832 88.1934 88.2175C87.3816 88.4944 86.6175 88.8947 85.9281 89.4043C85.4802 89.7999 85.3337 90.1181 85.2907 90.0923C85.2476 90.0665 85.2907 90.0063 85.3854 89.8601C85.4969 89.6457 85.6391 89.4487 85.8075 89.2753C86.4713 88.6986 87.2325 88.2443 88.0556 87.9337C88.5858 87.6935 89.0766 87.3745 89.5112 86.9877C89.9845 86.5274 90.3519 85.9698 90.5879 85.3537C90.8512 84.6783 90.9314 83.9456 90.8204 83.2295C90.7034 82.4668 90.3075 81.7744 89.7093 81.2859C89.1124 80.7995 88.3694 80.527 87.599 80.5119C86.879 80.5066 86.1859 80.7847 85.6697 81.2859C85.174 81.8002 84.5907 82.2224 83.947 82.5329C83.6377 82.6388 83.3086 82.6745 82.9838 82.6373C82.6589 82.6001 82.3465 82.491 82.0693 82.3179C81.3159 81.8218 80.7493 81.0897 80.4586 80.2367C80.3312 79.94 80.2443 79.6276 80.2002 79.3079V79.3079Z" fill="#263238"/>
<path d="M102.509 52.5703C102.397 52.8703 102.256 53.1584 102.087 53.4303C101.652 54.1543 101.459 54.9976 101.535 55.8383C101.567 56.1149 101.661 56.3808 101.81 56.6161C101.959 56.8514 102.16 57.05 102.397 57.1971C102.999 57.4827 103.646 57.663 104.309 57.7303C105.119 57.8593 105.848 58.2971 106.342 58.9515C106.857 59.6585 107.116 60.5202 107.074 61.3939C107.027 62.2711 106.66 63.1007 106.04 63.7245C105.474 64.2922 104.766 64.6989 103.99 64.9027C103.296 65.0858 102.569 65.1123 101.863 64.9801C101.255 64.8438 100.674 64.6115 100.14 64.2921C99.4344 63.8076 98.6589 63.4335 97.8402 63.1827C97.2459 63.0709 96.9014 63.1311 96.9014 63.0881C96.9014 63.0451 96.9789 63.0881 97.1425 63.0193C97.3827 62.9877 97.6259 62.9877 97.8661 63.0193C98.7292 63.2077 99.5518 63.5485 100.295 64.0255C100.804 64.308 101.353 64.511 101.923 64.6275C102.576 64.7272 103.243 64.6862 103.878 64.5071C104.576 64.3118 105.212 63.9383 105.721 63.4235C106.247 62.8679 106.553 62.1406 106.583 61.3767C106.617 60.6091 106.392 59.8522 105.945 59.2267C105.517 58.6494 104.881 58.2608 104.171 58.1431C103.464 58.0563 102.779 57.8436 102.147 57.5153C101.879 57.3306 101.655 57.0892 101.491 56.8083C101.328 56.5273 101.228 56.2137 101.199 55.8899C101.142 54.9877 101.395 54.093 101.914 53.3529C102.071 53.0634 102.272 52.7994 102.509 52.5703V52.5703Z" fill="#263238"/>
<path d="M75.8246 93.6009C75.5072 93.4835 75.2015 93.3367 74.9115 93.1623V93.1623C74.2259 93.0243 73.516 93.0688 72.853 93.2913C72.3666 93.42 71.8659 93.4864 71.3628 93.4891C70.7605 93.4538 70.1821 93.2414 69.7005 92.8785C69.1589 92.4758 68.763 91.9084 68.5721 91.2617C68.3829 90.5154 68.4782 89.7254 68.8395 89.0452C69.2008 88.365 69.8023 87.8432 70.5273 87.5809C71.2595 87.2971 72.0433 87.2025 72.7151 86.9015C73.1312 86.7272 73.4621 86.3967 73.6368 85.9813C73.7736 85.55 73.7944 85.0903 73.6971 84.6483C73.4206 83.7439 73.3098 82.7971 73.3698 81.8533C73.4545 81.1731 73.7116 80.5257 74.1165 79.9722C74.5215 79.4187 75.0611 78.9774 75.6843 78.6899C76.3076 78.4025 76.9939 78.2783 77.6785 78.3293C78.3631 78.3802 79.0235 78.6045 79.5972 78.9809C79.8431 79.1391 80.0663 79.3301 80.2604 79.5485C80.3896 79.7033 80.4499 79.7807 80.4413 79.7979C80.1448 79.5549 79.831 79.3336 79.5025 79.1357C78.6032 78.6271 77.5438 78.4795 76.5395 78.7229C75.8172 78.9277 75.1707 79.3388 74.6795 79.9057C74.1882 80.4726 73.8737 81.1705 73.7746 81.9135C73.744 82.8156 73.8633 83.7164 74.1277 84.5795C74.243 85.0959 74.2162 85.6337 74.0502 86.1361C73.9479 86.398 73.7936 86.6365 73.5968 86.8375C73.4 87.0385 73.1646 87.1977 72.9046 87.3057C72.1381 87.6497 71.3542 87.7357 70.6824 87.9937C70.0578 88.2203 69.5378 88.6673 69.2205 89.2502C68.9032 89.8332 68.8104 90.512 68.9597 91.1585C69.1195 91.7254 69.4577 92.226 69.9244 92.5861C70.3411 92.9191 70.8481 93.1198 71.3801 93.1623C71.8547 93.1707 72.3286 93.1245 72.7927 93.0247C73.5011 92.8159 74.2548 92.8159 74.9632 93.0247C75.2713 93.1835 75.5603 93.3768 75.8246 93.6009V93.6009Z" fill="#263238"/>
<path d="M47.0046 150.92C47.0046 150.92 46.9357 150.765 47.0046 150.473C47.1716 150.051 47.4747 149.697 47.866 149.467C48.4754 149.133 49.1606 148.961 49.8556 148.968C50.7291 148.989 51.6006 148.876 52.4396 148.632C52.9216 148.441 53.3586 148.151 53.7232 147.783C54.0878 147.414 54.3722 146.975 54.5585 146.491C54.7518 145.944 54.8135 145.359 54.7387 144.784C54.6639 144.209 54.4547 143.66 54.1279 143.18C53.4043 142.139 52.0693 141.675 50.8203 140.927C50.1524 140.55 49.6011 139.996 49.2269 139.327C48.8888 138.627 48.6899 137.867 48.6412 137.091C48.4947 135.578 48.4775 134.081 47.6248 132.972C47.2588 132.434 46.7652 131.996 46.188 131.696C45.6108 131.396 44.968 131.243 44.3173 131.252C43.7309 131.298 43.1668 131.496 42.6804 131.826C42.1941 132.157 41.8023 132.608 41.5438 133.135C41.3131 133.613 41.2292 134.149 41.3026 134.675C41.3801 135.182 41.5696 135.672 41.6902 136.162C41.8399 136.639 41.8578 137.147 41.7419 137.633C41.6097 138.065 41.3482 138.446 40.9925 138.725C40.4342 139.15 39.756 139.387 39.0545 139.405C38.6234 139.426 38.1913 139.411 37.7625 139.362C37.6136 139.352 37.4663 139.326 37.3232 139.284C37.3232 139.233 37.9434 139.284 39.0459 139.233C39.7014 139.187 40.3268 138.94 40.8375 138.527C41.1436 138.279 41.366 137.943 41.4749 137.564C41.5652 137.123 41.5355 136.666 41.3887 136.24C41.2681 135.775 41.07 135.285 40.9753 134.726C40.8766 134.142 40.9608 133.541 41.2165 133.006C41.4976 132.411 41.9305 131.9 42.4716 131.524C43.0128 131.148 43.6433 130.921 44.3 130.865C45.0255 130.851 45.743 131.017 46.3881 131.349C47.0331 131.681 47.5854 132.168 47.9952 132.765C48.4373 133.388 48.7318 134.102 48.8565 134.855C48.9943 135.603 49.0288 136.352 49.1063 137.1C49.1468 137.819 49.3282 138.523 49.6403 139.172C49.976 139.773 50.4706 140.27 51.0701 140.609C52.2415 141.331 53.6541 141.813 54.5154 142.991C54.8696 143.487 55.1043 144.058 55.2015 144.66C55.2986 145.262 55.2555 145.878 55.0755 146.46C54.8956 147.042 54.5836 147.575 54.1638 148.018C53.744 148.46 53.2277 148.8 52.655 149.011C51.7752 149.254 50.8618 149.352 49.9504 149.303C49.2929 149.276 48.6389 149.412 48.0468 149.699C47.6784 149.891 47.3778 150.191 47.1855 150.559C47.113 150.673 47.0524 150.794 47.0046 150.92V150.92Z" fill="#263238"/>
<path d="M40.846 151.401C40.7689 151.184 40.7511 150.949 40.7943 150.722C40.9066 150.155 40.9757 149.58 41.001 149.002C40.9585 148.623 40.7849 148.27 40.5101 148.004C40.1749 147.708 39.7683 147.503 39.3301 147.411C38.8563 147.282 38.3309 147.205 37.7797 147.05C37.1964 146.885 36.6577 146.591 36.2034 146.19C35.7648 145.808 35.4098 145.339 35.1609 144.814C34.9119 144.289 34.7741 143.718 34.7564 143.137C34.7541 142.349 34.9817 141.577 35.4115 140.915C35.8413 140.254 36.4547 139.732 37.1767 139.413C37.5902 139.25 37.8313 139.232 37.8399 139.258C37.1026 139.595 36.4539 140.099 35.945 140.729C35.4232 141.419 35.15 142.264 35.1698 143.128C35.1998 143.648 35.3333 144.157 35.5625 144.626C35.7918 145.094 36.1121 145.511 36.5049 145.854C37.3662 146.637 38.4343 146.714 39.442 147.015C39.9443 147.136 40.4051 147.389 40.7771 147.746C41.0974 148.08 41.2896 148.515 41.3197 148.976C41.3245 149.338 41.2722 149.698 41.1647 150.043C41.0786 150.335 41.0097 150.584 40.9666 150.791C40.9387 150.997 40.8985 151.201 40.846 151.401V151.401Z" fill="#263238"/>
<path d="M21.7158 114.404C21.89 114.195 22.1114 114.03 22.3618 113.923C22.671 113.779 23.0188 113.74 23.3524 113.811C23.8037 113.923 24.2023 114.187 24.4807 114.559V114.559C24.7792 115.528 25.3254 116.403 26.0656 117.096C26.2921 117.281 26.5544 117.417 26.8361 117.495C27.1177 117.574 27.4126 117.593 27.7021 117.552C28.3374 117.353 28.9043 116.981 29.3386 116.477C29.8791 115.883 30.6103 115.497 31.4058 115.385C32.2658 115.302 33.1278 115.521 33.8434 116.004C34.6074 116.499 35.1506 117.269 35.3594 118.154C35.5681 119.068 35.4838 120.025 35.1182 120.889C34.8415 121.545 34.424 122.132 33.8951 122.609C33.3736 123.046 32.8111 123.432 32.2155 123.761C31.0988 124.249 30.1475 125.05 29.4764 126.066C29.0919 127.105 28.9162 128.21 28.9596 129.317C28.958 130.348 28.6125 131.35 27.9777 132.163C27.4325 132.817 26.6936 133.281 25.8675 133.488C25.5612 133.592 25.2357 133.627 24.9142 133.592C24.5927 133.556 24.2829 133.45 24.007 133.281C23.7049 133.032 23.4383 132.743 23.2145 132.421C23.1276 132.314 23.0553 132.195 22.9992 132.069C22.9992 132.069 23.1112 132.163 23.2921 132.361C23.5263 132.662 23.7985 132.93 24.1017 133.161C24.3624 133.307 24.6524 133.392 24.9504 133.411C25.2484 133.431 25.547 133.383 25.8244 133.273C26.5884 133.058 27.266 132.61 27.7624 131.991C28.3349 131.218 28.6374 130.279 28.6237 129.317C28.5595 128.147 28.7354 126.976 29.1405 125.877C30.3464 123.486 33.7745 123.297 34.7392 120.717C35.0683 119.943 35.1466 119.086 34.9631 118.266C34.7819 117.483 34.3071 116.8 33.6367 116.357C33.006 115.933 32.2497 115.736 31.492 115.798C30.7775 115.896 30.1196 116.239 29.6315 116.769C29.1415 117.316 28.5047 117.71 27.7968 117.905C27.4593 117.951 27.1157 117.926 26.7889 117.829C26.4621 117.733 26.1597 117.568 25.9019 117.346C25.1255 116.608 24.5682 115.67 24.2912 114.637V114.637C24.0481 114.304 23.7035 114.06 23.3093 113.94C23.0239 113.866 22.7224 113.884 22.448 113.992C22.1945 114.112 21.9499 114.25 21.7158 114.404V114.404Z" fill="#263238"/>
<path d="M98.5811 39.98C99.0574 40.096 99.4996 40.3223 99.8722 40.6405C100.245 40.9587 100.537 41.3599 100.726 41.8118C102.271 40.5925 104.201 39.9615 106.169 40.0316C105.943 41.1604 105.289 42.1585 104.343 42.818C103.482 43.5232 102.423 44.0392 101.518 44.7358C100.572 45.3886 99.9026 46.3696 99.6405 47.4878" fill="#B78876"/>
<path d="M376.671 300.646L375.965 293.645L389.074 292.235L390.229 302.452L389.419 302.598C385.827 303.183 371.09 305.35 368.592 304.877C365.801 304.352 376.671 300.646 376.671 300.646Z" fill="#72B8F3"/>
<path d="M385.465 302.865C385.541 301.741 386.028 300.685 386.835 299.898C387.624 299.11 388.683 298.65 389.798 298.608L390.194 302.271L385.465 302.865Z" fill="#72B8F3"/>
<path d="M371.383 302.65C371.383 302.65 367.601 304.198 368.153 304.791C368.704 305.385 383.657 303.751 390.229 302.452L390.177 302.168L372.726 304.215C372.726 304.215 372.149 302.598 371.383 302.65Z" fill="#72B8F3"/>
<path d="M390.384 302.134L390.16 302.185L389.514 302.297L387.145 302.658C385.138 302.942 382.365 303.312 379.29 303.647C376.215 303.983 373.424 304.232 371.4 304.378L369.006 304.542H368.36H368.127H368.351L369.006 304.473L371.391 304.267C373.416 304.086 376.198 303.828 379.273 303.493C382.348 303.157 385.121 302.805 387.128 302.547L389.505 302.228L390.151 302.151L390.384 302.134Z" fill="#263238"/>
<path d="M372.752 304.413C372.601 304.033 372.411 303.669 372.184 303.329C371.912 303.01 371.606 302.721 371.271 302.469C371.684 302.597 372.047 302.849 372.312 303.191C372.577 303.532 372.731 303.947 372.752 304.378V304.413Z" fill="#263238"/>
<path d="M376.404 302.031C376.404 302.031 376.163 301.859 375.939 301.575C375.715 301.291 375.56 301.05 375.595 301.016C375.629 300.981 375.844 301.196 376.068 301.48C376.292 301.764 376.439 302.005 376.404 302.031Z" fill="#263238"/>
<path d="M377.412 301.36C377.412 301.36 377.162 301.282 376.913 301.102C376.663 300.921 376.482 300.749 376.508 300.715C376.534 300.68 376.758 300.792 377.007 300.973C377.257 301.153 377.438 301.325 377.412 301.36Z" fill="#263238"/>
<path d="M377.989 300.053C377.779 300.153 377.55 300.206 377.317 300.207C377.088 300.261 376.849 300.261 376.62 300.207C376.828 300.102 377.058 300.046 377.291 300.044C377.522 299.996 377.76 299.999 377.989 300.053Z" fill="#263238"/>
<path d="M378.084 299.149C377.874 299.326 377.616 299.434 377.343 299.459C377.081 299.532 376.804 299.532 376.542 299.459C376.792 299.385 377.049 299.339 377.309 299.321C377.561 299.242 377.821 299.184 378.084 299.149V299.149Z" fill="#263238"/>
<path d="M375.836 300.938C375.557 301.021 375.264 301.05 374.975 301.024C374.668 301.023 374.362 300.991 374.062 300.93C373.876 300.896 373.694 300.844 373.519 300.775C373.415 300.724 373.333 300.639 373.286 300.534C373.264 300.473 373.261 300.406 373.278 300.343C373.295 300.28 373.331 300.223 373.381 300.181C373.577 300.058 373.798 299.98 374.028 299.953C374.258 299.926 374.492 299.95 374.711 300.025C374.93 300.099 375.131 300.221 375.297 300.382C375.463 300.543 375.591 300.739 375.672 300.955C375.724 301.102 375.732 301.179 375.724 301.179C375.604 300.933 375.447 300.707 375.259 300.508C375.045 300.305 374.775 300.17 374.484 300.121C374.315 300.083 374.141 300.078 373.971 300.108C373.801 300.137 373.638 300.2 373.493 300.293C373.364 300.405 373.433 300.56 373.596 300.629C373.754 300.697 373.919 300.749 374.087 300.783C374.371 300.849 374.659 300.892 374.949 300.912C375.517 300.947 375.836 300.912 375.836 300.938Z" fill="#263238"/>
<path d="M375.629 301.007C375.5 300.844 375.441 300.637 375.465 300.431C375.466 300.209 375.522 299.99 375.629 299.795C375.686 299.662 375.777 299.546 375.891 299.457C376.006 299.368 376.14 299.31 376.284 299.287C376.371 299.296 376.452 299.339 376.508 299.406C376.565 299.474 376.592 299.561 376.585 299.648C376.582 299.784 376.546 299.916 376.482 300.035C376.391 300.236 376.275 300.423 376.137 300.594C375.905 300.878 375.706 300.999 375.698 300.981C375.689 300.964 375.844 300.818 376.051 300.526C376.169 300.357 376.268 300.175 376.344 299.984C376.447 299.786 376.49 299.459 376.275 299.451C376.06 299.442 375.87 299.683 375.758 299.863C375.659 300.041 375.597 300.237 375.577 300.44C375.576 300.63 375.593 300.82 375.629 301.007V301.007Z" fill="#263238"/>
<path d="M389.721 298.582C389.397 298.61 389.075 298.656 388.756 298.72C387.995 298.893 387.297 299.274 386.74 299.82C386.192 300.375 385.805 301.067 385.621 301.824C385.483 302.409 385.5 302.787 385.474 302.787C385.458 302.702 385.458 302.615 385.474 302.529C385.469 302.287 385.489 302.045 385.534 301.807C385.688 301.011 386.078 300.28 386.654 299.709C387.231 299.138 387.966 298.754 388.764 298.608C389.003 298.567 389.246 298.547 389.488 298.548C389.567 298.548 389.645 298.56 389.721 298.582V298.582Z" fill="#263238"/>
<path d="M387.765 293.276C387.962 294.16 388.1 295.057 388.179 295.959C388.314 296.851 388.397 297.75 388.428 298.651C388.23 297.77 388.092 296.876 388.015 295.976C387.88 295.082 387.796 294.18 387.765 293.276V293.276Z" fill="#263238"/>
<path d="M383.674 301.773C383.06 301.979 382.424 302.112 381.779 302.168C381.138 302.272 380.486 302.289 379.841 302.22C379.841 302.177 380.702 302.134 381.762 302.005C382.821 301.876 383.665 301.721 383.674 301.773Z" fill="#263238"/>
<path d="M386.241 301.489C386.241 301.489 386.189 301.678 386.129 301.884C386.068 302.091 386.034 302.263 385.982 302.271C385.93 302.28 385.896 302.065 385.982 301.833C386.068 301.6 386.215 301.42 386.241 301.489Z" fill="#263238"/>
<path d="M387.076 300.173C387.076 300.173 387.076 300.354 386.921 300.5C386.766 300.646 386.68 300.758 386.646 300.732C386.611 300.706 386.646 300.551 386.801 300.405C386.956 300.259 387.042 300.147 387.076 300.173Z" fill="#263238"/>
<path d="M388.403 299.476C388.403 299.519 388.23 299.537 388.041 299.631C387.851 299.726 387.731 299.838 387.688 299.812C387.645 299.786 387.748 299.588 387.972 299.485C388.196 299.382 388.411 299.433 388.403 299.476Z" fill="#263238"/>
<path d="M389.367 299.107C389.367 299.15 389.316 299.227 389.212 299.279C389.109 299.33 389.005 299.347 388.988 299.279C388.971 299.21 389.031 299.167 389.143 299.115C389.255 299.064 389.341 299.072 389.367 299.107Z" fill="#263238"/>
<path d="M338.368 300.801L338.574 293.775L351.761 294.084L351.563 304.404H350.745C347.102 304.516 332.209 304.74 329.797 303.948C327.058 303.063 338.368 300.801 338.368 300.801Z" fill="#72B8F3"/>
<path d="M346.74 304.155C346.953 303.052 347.567 302.066 348.462 301.386C349.357 300.725 350.465 300.418 351.572 300.526L351.486 304.206L346.74 304.155Z" fill="#72B8F3"/>
<path d="M332.812 302.099C332.812 302.099 328.859 303.14 329.367 303.819C329.875 304.499 344.871 304.826 351.555 304.396V304.095L333.984 303.845C333.984 303.845 333.579 302.151 332.812 302.099Z" fill="#72B8F3"/>
<path d="M351.719 304.069H351.486H350.84L348.437 304.12C346.413 304.12 343.613 304.12 340.521 304.077C337.429 304.034 334.63 303.888 332.606 303.768L330.211 303.613L329.565 303.561H329.333H329.565H330.211L332.614 303.664C334.638 303.75 337.429 303.854 340.521 303.922C343.613 303.991 346.413 304.008 348.437 304.017H351.719V304.069Z" fill="#263238"/>
<path d="M333.94 304C333.84 303.602 333.698 303.216 333.518 302.848C333.29 302.504 333.021 302.19 332.717 301.91C333.126 302.071 333.461 302.377 333.656 302.77C333.896 303.133 333.997 303.569 333.94 304V304Z" fill="#263238"/>
<path d="M337.877 302.142C337.877 302.142 337.653 301.936 337.472 301.626C337.335 301.454 337.244 301.25 337.205 301.033C337.205 301.033 337.42 301.239 337.61 301.549C337.74 301.726 337.831 301.928 337.877 302.142Z" fill="#263238"/>
<path d="M338.953 301.609C338.953 301.609 338.721 301.497 338.497 301.282C338.273 301.067 338.118 300.878 338.152 300.852C338.187 300.827 338.385 300.956 338.609 301.171C338.833 301.386 338.988 301.575 338.953 301.609Z" fill="#263238"/>
<path d="M339.66 300.379C340.43 300.565 341.1 301.037 341.532 301.701C341.964 302.364 342.125 303.167 341.983 303.945C341.841 304.723 341.406 305.417 340.767 305.885C340.128 306.353 339.334 306.559 338.548 306.461C337.762 306.363 337.043 305.968 336.54 305.358C336.036 304.747 335.785 303.967 335.839 303.178C335.893 302.389 336.248 301.65 336.83 301.114C337.412 300.577 338.178 300.284 338.971 300.293C339.204 300.269 339.44 300.298 339.66 300.379Z" fill="#263238"/>
<path d="M339.91 299.511C339.668 299.628 339.406 299.695 339.138 299.709C338.87 299.722 338.602 299.681 338.351 299.588C338.611 299.567 338.874 299.567 339.134 299.588C339.389 299.53 339.649 299.504 339.91 299.511V299.511Z" fill="#263238"/>
<path d="M337.455 300.99C337.17 301.036 336.879 301.036 336.594 300.99C336.286 300.94 335.984 300.865 335.689 300.766C335.511 300.712 335.341 300.637 335.181 300.543C335.082 300.482 335.008 300.388 334.974 300.276C334.965 300.213 334.972 300.149 334.997 300.09C335.021 300.03 335.061 299.979 335.112 299.941C335.439 299.789 335.809 299.756 336.158 299.847C336.507 299.938 336.813 300.147 337.024 300.44C337.153 300.608 337.244 300.801 337.291 301.007C337.306 301.084 337.306 301.163 337.291 301.24C337.208 300.978 337.082 300.731 336.921 300.509C336.733 300.282 336.485 300.112 336.206 300.018C336.042 299.958 335.867 299.932 335.692 299.941C335.518 299.95 335.347 299.994 335.19 300.07C335.06 300.164 335.103 300.319 335.25 300.414C335.399 300.503 335.558 300.575 335.724 300.629C336.004 300.734 336.292 300.818 336.585 300.878C337.136 300.956 337.455 300.956 337.455 300.99Z" fill="#263238"/>
<path d="M337.231 301.025C337.135 300.842 337.107 300.632 337.153 300.431C337.18 300.21 337.263 300 337.394 299.821C337.469 299.697 337.574 299.595 337.699 299.523C337.824 299.451 337.965 299.411 338.109 299.408C338.152 299.417 338.192 299.434 338.228 299.459C338.264 299.484 338.294 299.516 338.318 299.553C338.341 299.59 338.357 299.631 338.364 299.674C338.371 299.717 338.369 299.761 338.359 299.803C338.34 299.936 338.29 300.063 338.213 300.173C338.099 300.361 337.96 300.532 337.799 300.681C337.664 300.827 337.496 300.939 337.308 301.007C337.308 301.007 337.48 300.861 337.722 300.603C337.854 300.445 337.974 300.279 338.083 300.104C338.204 299.924 338.29 299.606 338.083 299.563C337.877 299.52 337.644 299.743 337.515 299.907C337.391 300.069 337.306 300.257 337.265 300.457C337.239 300.645 337.228 300.835 337.231 301.025Z" fill="#263238"/>
<path d="M351.529 300.457C351.529 300.457 351.15 300.414 350.555 300.457C349.775 300.539 349.032 300.837 348.411 301.317C347.793 301.794 347.316 302.43 347.033 303.157C346.826 303.716 346.791 304.103 346.766 304.095C346.747 304.007 346.747 303.916 346.766 303.828C346.792 303.588 346.844 303.352 346.921 303.123C347.172 302.352 347.654 301.677 348.3 301.186C348.946 300.696 349.727 300.415 350.538 300.379C350.779 300.35 351.021 300.35 351.262 300.379C351.355 300.39 351.445 300.416 351.529 300.457V300.457Z" fill="#263238"/>
<path d="M350.289 294.953C350.359 295.851 350.377 296.753 350.34 297.653C350.361 298.557 350.324 299.462 350.228 300.362C350.163 299.461 350.146 298.556 350.177 297.653C350.161 296.751 350.198 295.85 350.289 294.953V294.953Z" fill="#263238"/>
<path d="M345.112 302.83C344.478 302.964 343.829 303.013 343.183 302.977C342.536 302.998 341.89 302.931 341.262 302.779C341.262 302.736 342.123 302.779 343.183 302.822C344.242 302.865 345.112 302.787 345.112 302.83Z" fill="#263238"/>
<path d="M347.696 302.882C347.696 302.882 347.627 303.063 347.532 303.26C347.438 303.458 347.386 303.63 347.343 303.63C347.3 303.63 347.274 303.415 347.386 303.192C347.498 302.968 347.67 302.856 347.696 302.882Z" fill="#263238"/>
<path d="M348.704 301.695C348.704 301.695 348.643 301.867 348.505 301.996C348.368 302.125 348.221 302.22 348.195 302.185C348.17 302.151 348.247 302.022 348.393 301.884C348.54 301.747 348.704 301.669 348.704 301.695Z" fill="#263238"/>
<path d="M350.108 301.179C350.108 301.179 349.918 301.179 349.729 301.282C349.539 301.386 349.384 301.446 349.358 301.411C349.333 301.377 349.436 301.205 349.677 301.128C349.918 301.05 350.116 301.136 350.108 301.179Z" fill="#263238"/>
<path d="M351.107 300.938C351.107 300.981 351.038 301.041 350.934 301.084C350.831 301.127 350.719 301.127 350.702 301.084C350.685 301.041 350.771 300.973 350.874 300.938C350.978 300.904 351.089 300.895 351.107 300.938Z" fill="#263238"/>
<path d="M386.706 147.394C386.706 147.394 396.077 196.337 393.924 196.956C391.771 197.575 343.105 198.082 343.105 198.082L337.825 151.427L361.038 143.773L386.706 147.394Z" fill="#72B8F3"/>
<path opacity="0.4" d="M386.706 147.394C386.706 147.394 396.077 196.337 393.924 196.956C391.771 197.575 343.105 198.082 343.105 198.082L337.825 151.427L361.038 143.773L386.706 147.394Z" fill="black"/>
<path d="M384.63 134.864L385.543 223.676L393.011 296.724H370.444L365.931 225.74C365.931 225.74 364.139 167.415 362.322 167.38C359.247 167.32 356.913 298.376 355.732 298.625C353.734 299.064 332.761 298.625 332.761 298.625C332.761 298.625 339.522 145.545 339.471 145.545C339.419 145.545 384.63 134.864 384.63 134.864Z" fill="#263238"/>
<path d="M363.105 166.83C363.105 166.83 362.89 166.649 362.563 166.271C362.13 165.715 361.766 165.108 361.477 164.465C361.054 163.505 360.75 162.497 360.573 161.464C360.36 160.207 360.245 158.936 360.229 157.662C360.229 154.953 360.315 152.502 360.375 150.782C360.363 149.829 360.432 148.877 360.582 147.936C360.69 148.883 360.728 149.838 360.694 150.791C360.694 152.674 360.694 155.048 360.694 157.671C360.655 159.946 361.026 162.209 361.788 164.353C362.164 165.21 362.605 166.038 363.105 166.83V166.83Z" fill="#455A64"/>
<path d="M375.517 153.887C375.601 154.874 375.63 155.864 375.603 156.854C375.552 159.231 376.06 161.588 377.085 163.734C377.675 164.873 378.539 165.849 379.6 166.572C380.473 167.148 381.477 167.497 382.52 167.587C383.494 167.645 384.468 167.483 385.371 167.114C385.172 167.297 384.937 167.438 384.682 167.527C383.993 167.815 383.248 167.944 382.502 167.905C381.393 167.853 380.316 167.516 379.376 166.925C378.238 166.178 377.312 165.15 376.688 163.94C375.634 161.748 375.151 159.325 375.284 156.897C375.284 155.977 375.353 155.237 375.396 154.73C375.4 154.445 375.441 154.162 375.517 153.887V153.887Z" fill="#455A64"/>
<path d="M337.808 168C337.808 168 338.023 168.163 338.445 168.378C339.042 168.667 339.705 168.791 340.366 168.739C341.343 168.651 342.271 168.27 343.028 167.647C343.971 166.879 344.788 165.968 345.448 164.947C346.676 163.092 347.49 160.994 347.834 158.798C348.092 157.078 348.015 156.037 348.092 156.028C348.174 156.269 348.212 156.522 348.204 156.777C348.244 157.465 348.226 158.155 348.153 158.841C347.893 161.115 347.093 163.294 345.818 165.196C345.132 166.257 344.273 167.196 343.277 167.974C342.448 168.631 341.432 169.01 340.375 169.057C339.665 169.079 338.965 168.894 338.359 168.524C337.946 168.249 337.791 168.017 337.808 168Z" fill="#455A64"/>
<path d="M381.322 221.036C380.789 221.377 380.209 221.637 379.6 221.81C378.169 222.337 376.708 222.78 375.224 223.134C373.742 223.502 372.241 223.789 370.728 223.994C370.104 224.114 369.466 224.148 368.833 224.097C368.833 223.968 371.667 223.573 375.121 222.73C378.575 221.887 381.279 220.915 381.322 221.036Z" fill="#455A64"/>
<path d="M379.634 220.047C378.253 220.341 376.844 220.486 375.431 220.477C374.031 220.625 372.619 220.625 371.219 220.477C374.003 220.05 376.823 219.914 379.634 220.072V220.047Z" fill="#455A64"/>
<path d="M351.994 230.04C350.249 230.657 348.458 231.135 346.637 231.468C344.849 231.945 343.026 232.276 341.185 232.457C342.929 231.838 344.721 231.36 346.542 231.029C348.33 230.556 350.154 230.225 351.994 230.04V230.04Z" fill="#455A64"/>
<path d="M351.176 227.649C349.509 227.804 347.83 227.804 346.163 227.649C344.486 227.654 342.812 227.516 341.159 227.236C342.829 227.08 344.51 227.08 346.18 227.236C347.854 227.229 349.526 227.367 351.176 227.649V227.649Z" fill="#455A64"/>
<path d="M372.063 77.9231H379.204C381.533 78.1135 383.793 78.8131 385.822 79.9724C387.85 81.1316 389.599 82.722 390.944 84.6311C392.524 86.9255 393.516 89.5724 393.831 92.3392C394.147 95.106 393.776 97.9078 392.753 100.498L392.012 102.45L385.026 118.859C384.492 121.026 385.026 125.49 385.026 142.604L339.427 145.562L341.409 116.933L342.158 108.659L342.52 98.3395C336.87 94.3558 331.79 89.6225 327.42 84.2699L340.952 70.7593C340.952 70.7593 350.995 79.5743 353.665 79.3593C356.335 79.1443 372.063 77.9231 372.063 77.9231Z" fill="#72B8F3"/>
<path d="M371.314 79.1185L357.317 80.1505C357.127 78.5337 356.86 72.2385 356.86 72.2385C356.86 72.2385 350.995 71.6967 350.573 65.9089C350.151 60.1211 350.323 46.7481 350.323 46.7481C353.535 45.1308 357.121 44.3985 360.711 44.6268C364.301 44.855 367.765 46.0356 370.745 48.0467L371.606 48.6573L371.314 79.1185Z" fill="#FFBE9D"/>
<path d="M352.235 56.6296C352.341 56.5583 352.43 56.4643 352.495 56.3544C352.56 56.2445 352.6 56.1215 352.612 55.9944C352.623 55.8673 352.606 55.7391 352.562 55.6193C352.518 55.4995 352.448 55.391 352.356 55.3017C352.265 55.2124 352.155 55.1446 352.034 55.1031C351.913 55.0616 351.784 55.0475 351.657 55.0618C351.53 55.0762 351.408 55.1186 351.299 55.1859C351.191 55.2533 351.098 55.344 351.029 55.4514C350.922 55.6179 350.876 55.8162 350.898 56.0129C350.92 56.2096 351.01 56.3926 351.151 56.5311C351.293 56.6695 351.478 56.7549 351.676 56.7728C351.873 56.7908 352.071 56.7402 352.235 56.6296Z" fill="#263238"/>
<path d="M350.754 55.3913C350.848 55.4859 351.391 55.0129 352.192 54.9613C352.993 54.9097 353.596 55.2795 353.674 55.1763C353.751 55.0731 353.613 54.9527 353.346 54.7721C352.993 54.5472 352.575 54.4445 352.158 54.4797C351.736 54.5085 351.334 54.6712 351.012 54.9441C350.779 55.1591 350.702 55.3483 350.754 55.3913Z" fill="#263238"/>
<path d="M360.004 55.5202C359.861 55.6154 359.75 55.7513 359.685 55.9103C359.62 56.0693 359.604 56.2441 359.639 56.4122C359.674 56.5804 359.759 56.7341 359.883 56.8537C360.006 56.9732 360.163 57.053 360.332 57.0829C360.502 57.1127 360.676 57.0912 360.833 57.0212C360.99 56.9511 361.123 56.8356 361.214 56.6897C361.304 56.5438 361.349 56.374 361.343 56.2024C361.336 56.0307 361.278 55.865 361.176 55.7266C361.045 55.5484 360.85 55.4275 360.632 55.3891C360.413 55.3506 360.189 55.3976 360.004 55.5202V55.5202Z" fill="#263238"/>
<path d="M359.47 55.5546C359.574 55.6492 360.116 55.1762 360.909 55.1246C361.701 55.073 362.313 55.4514 362.399 55.3396C362.485 55.2278 362.339 55.116 362.072 54.944C361.716 54.7154 361.296 54.6097 360.874 54.643C360.454 54.6742 360.055 54.8401 359.737 55.116C359.505 55.331 359.427 55.5202 359.47 55.5546Z" fill="#263238"/>
<path d="M356.68 62.34C356.25 62.4521 355.805 62.4928 355.362 62.4604C355.242 62.4764 355.12 62.4764 355 62.4604C354.917 62.4428 354.839 62.4054 354.773 62.3516C354.707 62.2977 354.655 62.2289 354.621 62.1508C354.545 61.8654 354.567 61.5629 354.682 61.2908L355.181 59.6224C355.557 58.1722 356.07 56.7611 356.714 55.4084C356.488 56.8742 356.119 58.3144 355.612 59.7084C355.422 60.2846 355.25 60.8264 355.078 61.3682C354.984 61.5573 354.945 61.7689 354.966 61.9788C354.966 62.0906 355.155 62.125 355.371 62.1336C355.815 62.132 356.257 62.2017 356.68 62.34Z" fill="#263238"/>
<path d="M359.324 63.0624C360.125 62.512 357.11 64.4126 355.482 64.4384C355.778 64.8396 356.202 65.1286 356.684 65.2583C357.166 65.3879 357.678 65.3505 358.135 65.1522C359.832 64.4126 359.324 63.0624 359.324 63.0624Z" fill="white"/>
<path d="M356.809 72.1525C359.488 72.0458 362.075 71.1479 364.242 69.5725C364.242 69.5725 362.709 73.8725 356.887 73.6919L356.809 72.1525Z" fill="#EB996E"/>
<path d="M370.306 55.0645C370.435 55.0129 374.612 54.4711 374.216 59.3645C373.82 64.2579 368.971 62.2627 368.971 62.1251C368.971 61.9875 370.306 55.0645 370.306 55.0645Z" fill="#FFBE9D"/>
<path d="M370.624 60.5511C370.624 60.5511 370.702 60.6113 370.84 60.6887C371.038 60.795 371.27 60.8197 371.486 60.7575C371.82 60.5819 372.102 60.3204 372.302 60C372.502 59.6795 372.613 59.3117 372.623 58.9343C372.673 58.5101 372.622 58.0802 372.476 57.6787C372.442 57.5219 372.37 57.3757 372.266 57.2528C372.163 57.1299 372.031 57.0341 371.882 56.9735C371.786 56.9393 371.681 56.9395 371.585 56.974C371.489 57.0086 371.409 57.0753 371.357 57.1627C371.279 57.3003 371.305 57.4035 371.279 57.4035C371.253 57.4035 371.176 57.3175 371.236 57.1111C371.273 56.9922 371.348 56.8891 371.451 56.8187C371.598 56.7283 371.774 56.6975 371.942 56.7327C372.148 56.7892 372.336 56.8982 372.487 57.049C372.638 57.1998 372.747 57.3871 372.804 57.5927C372.978 58.0382 373.043 58.5189 372.993 58.9945C372.981 59.4357 372.839 59.8636 372.585 60.2245C372.33 60.5855 371.975 60.8637 371.563 61.0241C371.427 61.0502 371.288 61.046 371.154 61.0118C371.02 60.9776 370.895 60.9143 370.788 60.8263C370.624 60.6715 370.607 60.5597 370.624 60.5511Z" fill="#EB996E"/>
<path d="M350.745 47.1008C350.034 46.89 349.414 46.4497 348.98 45.849C348.547 45.2483 348.326 44.521 348.351 43.7812C348.405 43.0429 348.658 42.333 349.085 41.7273C349.511 41.1215 350.094 40.6425 350.771 40.3412C351.453 40.0477 352.189 39.902 352.932 39.9139C353.674 39.9257 354.405 40.0948 355.078 40.41C355.287 39.3326 355.873 38.3645 356.731 37.678C357.589 36.9916 358.663 36.6312 359.761 36.6611C360.86 36.6911 361.913 37.1093 362.732 37.8415C363.551 38.5736 364.083 39.5722 364.234 40.6594C364.38 39.5414 365.646 38.9394 366.818 38.8534C367.379 38.7942 367.946 38.8641 368.476 39.0579C369.006 39.2517 369.485 39.5642 369.875 39.9714C370.252 40.391 370.46 40.9345 370.46 41.4979C370.46 42.0612 370.252 42.6048 369.875 43.0244C371.141 42.8573 372.423 43.1636 373.476 43.8844C373.993 44.2498 374.411 44.7386 374.691 45.3064C374.97 45.8742 375.103 46.5029 375.078 47.1352C375.031 47.7654 374.787 48.365 374.38 48.8495C373.974 49.334 373.426 49.6789 372.812 49.8356C372.382 49.9216 371.874 49.9474 371.641 50.3172C371.536 50.5335 371.494 50.7749 371.52 51.0138L371.65 55.1848C371.26 55.05 370.835 55.0684 370.458 55.2362C370.082 55.4039 369.785 55.7085 369.625 56.0878C369.332 56.8609 369.252 57.6984 369.393 58.513C369.04 59.0462 368.135 58.8914 367.748 58.3754C367.415 57.819 367.267 57.1717 367.326 56.5264C367.291 54.2904 367.263 52.0572 367.24 49.827C366.909 50.0097 366.537 50.1055 366.158 50.1053C365.78 50.105 365.408 50.0088 365.078 49.8257C364.747 49.6425 364.468 49.3785 364.268 49.0583C364.068 48.7381 363.952 48.3722 363.932 47.9952C363.456 48.45 362.885 48.7931 362.259 48.9994C361.633 49.2057 360.97 49.27 360.316 49.1876C359.662 49.1052 359.035 48.8782 358.481 48.5231C357.926 48.168 357.458 47.6939 357.11 47.1352C356.443 47.7138 355.705 48.2051 354.914 48.5972C354.111 48.9905 353.189 49.0702 352.33 48.8208C351.907 48.6858 351.536 48.4246 351.266 48.0725C350.997 47.7203 350.842 47.2941 350.823 46.8514L351.115 46.602" fill="#72B8F3"/>
<path d="M347.998 47.8662C347.998 47.8662 348.058 47.677 348.359 47.6512C348.452 47.6457 348.545 47.6588 348.632 47.6898C348.719 47.7209 348.799 47.7692 348.868 47.8319C348.957 47.9217 349.021 48.0331 349.054 48.1552C349.088 48.2773 349.089 48.4059 349.057 48.5285C349.026 48.6762 348.961 48.8147 348.867 48.9327C348.773 49.0507 348.652 49.145 348.514 49.2078C348.199 49.3333 347.848 49.3333 347.533 49.2078C347.182 49.0822 346.882 48.8467 346.677 48.5367C346.473 48.2267 346.374 47.8587 346.396 47.4878C346.438 47.1228 346.582 46.7768 346.81 46.4883C347.038 46.1999 347.342 45.9802 347.688 45.8539C348.245 45.6571 348.853 45.6571 349.41 45.8539C350.323 46.1721 350.694 46.6623 350.659 46.7139C350.625 46.7655 350.168 46.3957 349.324 46.1807C348.84 46.063 348.331 46.0991 347.868 46.2839C347.601 46.3896 347.368 46.5652 347.192 46.7922C347.016 47.0191 346.905 47.2891 346.869 47.5739C346.848 47.8573 346.92 48.1399 347.076 48.3779C347.232 48.6158 347.462 48.7957 347.731 48.8897C347.828 48.9394 347.934 48.9684 348.043 48.9747C348.152 48.9811 348.261 48.9648 348.363 48.9267C348.465 48.8887 348.558 48.8298 348.636 48.7538C348.714 48.6778 348.775 48.5864 348.816 48.4854C348.84 48.4181 348.848 48.3463 348.84 48.2754C348.832 48.2044 348.808 48.1362 348.77 48.0758C348.732 48.0154 348.681 47.9644 348.62 47.9266C348.559 47.8888 348.491 47.8653 348.42 47.8577C348.135 47.7889 348.023 47.9006 347.998 47.8662Z" fill="#72B8F3"/>
<path d="M371.357 46.5589C371.357 46.4987 371.718 46.1891 372.218 45.6129C372.524 45.2883 372.762 44.905 372.916 44.4863C373.011 44.2483 373.052 43.9919 373.036 43.736C373.02 43.4801 372.946 43.231 372.821 43.0071C372.706 42.7889 372.525 42.6119 372.304 42.5009C372.083 42.39 371.833 42.3505 371.589 42.3879C371.147 42.4601 370.722 42.6178 370.34 42.8523C369.668 43.2393 369.333 43.6177 369.281 43.5747C369.229 43.5317 369.488 43.0759 370.142 42.5857C370.546 42.2854 371.01 42.077 371.503 41.9751C371.82 41.9156 372.148 41.9546 372.442 42.0869C372.75 42.24 373.007 42.479 373.183 42.7749C373.34 43.0564 373.431 43.3705 373.447 43.6927C373.464 44.0148 373.406 44.3364 373.277 44.6325C373.088 45.0951 372.793 45.5072 372.416 45.8365C372.124 46.1557 371.761 46.403 371.357 46.5589V46.5589Z" fill="#72B8F3"/>
<path d="M360.254 40.582C360.353 40.1271 360.544 39.6971 360.814 39.3178C361.075 38.8766 361.407 38.4815 361.796 38.1482C362.301 37.7287 362.931 37.4896 363.588 37.4688C363.924 37.458 364.257 37.531 364.558 37.6811C364.859 37.8313 365.117 38.0539 365.31 38.3288C365.614 38.7674 365.768 39.2922 365.75 39.8252C365.776 40.2999 365.656 40.7712 365.405 41.1754C365.328 41.1754 365.474 40.6422 365.405 39.8424C365.378 39.3847 365.223 38.9437 364.957 38.5696C364.787 38.3623 364.571 38.1976 364.325 38.0886C364.08 37.9796 363.813 37.9293 363.545 37.9418C363.031 37.9952 362.536 38.1656 362.099 38.44C361.661 38.7143 361.292 39.0853 361.021 39.5242C360.59 40.1692 360.315 40.6164 360.254 40.582Z" fill="#72B8F3"/>
<g opacity="0.4">
<path d="M350.746 47.1008C350.035 46.89 349.414 46.4497 348.981 45.849C348.548 45.2483 348.326 44.521 348.351 43.7812C348.405 43.0429 348.659 42.333 349.085 41.7273C349.511 41.1215 350.094 40.6425 350.771 40.3412C351.453 40.0477 352.19 39.902 352.932 39.9139C353.674 39.9257 354.406 40.0948 355.078 40.41C355.288 39.3326 355.874 38.3645 356.731 37.678C357.589 36.9916 358.663 36.6312 359.762 36.6611C360.861 36.6911 361.913 37.1093 362.732 37.8415C363.551 38.5736 364.083 39.5722 364.234 40.6594C364.38 39.5414 365.647 38.9394 366.818 38.8534C367.379 38.7942 367.947 38.8641 368.477 39.0579C369.007 39.2517 369.485 39.5642 369.876 39.9714C370.252 40.391 370.46 40.9345 370.46 41.4979C370.46 42.0612 370.252 42.6048 369.876 43.0244C371.141 42.8573 372.424 43.1636 373.476 43.8844C373.994 44.2498 374.411 44.7386 374.691 45.3064C374.971 45.8742 375.104 46.5029 375.078 47.1352C375.031 47.7654 374.787 48.365 374.381 48.8495C373.974 49.334 373.426 49.6789 372.813 49.8356C372.382 49.9216 371.874 49.9474 371.641 50.3172C371.537 50.5335 371.495 50.7749 371.521 51.0138L371.65 55.1848C371.261 55.05 370.835 55.0684 370.459 55.2362C370.083 55.4039 369.785 55.7085 369.626 56.0878C369.333 56.8609 369.253 57.6984 369.393 58.513C369.04 59.0462 368.136 58.8914 367.748 58.3754C367.416 57.819 367.268 57.1717 367.326 56.5264C367.292 54.2904 367.263 52.0572 367.24 49.827C366.909 50.0097 366.537 50.1055 366.159 50.1053C365.781 50.105 365.409 50.0088 365.078 49.8257C364.747 49.6425 364.469 49.3785 364.268 49.0583C364.068 48.7381 363.952 48.3722 363.933 47.9952C363.457 48.45 362.885 48.7931 362.259 48.9994C361.634 49.2057 360.97 49.27 360.316 49.1876C359.663 49.1052 359.036 48.8782 358.481 48.5231C357.927 48.168 357.459 47.6939 357.111 47.1352C356.444 47.7138 355.706 48.2051 354.914 48.5972C354.111 48.9905 353.19 49.0702 352.33 48.8208C351.908 48.6858 351.536 48.4246 351.267 48.0725C350.997 47.7203 350.842 47.2941 350.823 46.8514L351.116 46.602" fill="black"/>
<path d="M347.998 47.8662C347.998 47.8662 348.058 47.677 348.359 47.6512C348.452 47.6457 348.545 47.6588 348.632 47.6898C348.719 47.7209 348.799 47.7692 348.868 47.8319C348.957 47.9217 349.021 48.0331 349.054 48.1552C349.088 48.2773 349.089 48.4059 349.057 48.5285C349.026 48.6762 348.961 48.8147 348.867 48.9327C348.773 49.0507 348.652 49.145 348.514 49.2078C348.199 49.3333 347.848 49.3333 347.533 49.2078C347.182 49.0822 346.882 48.8467 346.677 48.5367C346.473 48.2267 346.374 47.8587 346.396 47.4878C346.438 47.1228 346.582 46.7768 346.81 46.4883C347.038 46.1999 347.342 45.9802 347.688 45.8539C348.245 45.6571 348.853 45.6571 349.41 45.8539C350.323 46.1721 350.694 46.6623 350.659 46.7139C350.625 46.7655 350.168 46.3957 349.324 46.1807C348.84 46.063 348.331 46.0991 347.868 46.2839C347.601 46.3896 347.368 46.5652 347.192 46.7922C347.016 47.0191 346.905 47.2891 346.869 47.5739C346.848 47.8573 346.92 48.1399 347.076 48.3779C347.232 48.6158 347.462 48.7957 347.731 48.8897C347.828 48.9394 347.934 48.9684 348.043 48.9747C348.152 48.9811 348.261 48.9648 348.363 48.9267C348.465 48.8887 348.558 48.8298 348.636 48.7538C348.714 48.6778 348.775 48.5864 348.816 48.4854C348.84 48.4181 348.848 48.3463 348.84 48.2754C348.832 48.2044 348.808 48.1362 348.77 48.0758C348.732 48.0154 348.681 47.9644 348.62 47.9266C348.559 47.8888 348.491 47.8653 348.42 47.8577C348.135 47.7889 348.023 47.9006 347.998 47.8662Z" fill="black"/>
<path d="M371.357 46.5589C371.357 46.4987 371.719 46.1891 372.218 45.6129C372.525 45.2883 372.762 44.905 372.916 44.4863C373.012 44.2483 373.053 43.9919 373.037 43.736C373.02 43.4801 372.947 43.231 372.821 43.0071C372.706 42.7889 372.525 42.6119 372.305 42.5009C372.084 42.39 371.834 42.3505 371.59 42.3879C371.147 42.4601 370.723 42.6178 370.341 42.8523C369.669 43.2393 369.333 43.6177 369.281 43.5747C369.23 43.5317 369.488 43.0759 370.143 42.5857C370.546 42.2854 371.011 42.077 371.504 41.9751C371.821 41.9156 372.148 41.9546 372.442 42.0869C372.751 42.24 373.008 42.479 373.183 42.7749C373.341 43.0564 373.431 43.3705 373.448 43.6927C373.464 44.0148 373.406 44.3364 373.278 44.6325C373.088 45.0951 372.793 45.5072 372.417 45.8365C372.124 46.1557 371.761 46.403 371.357 46.5589V46.5589Z" fill="black"/>
<path d="M360.254 40.582C360.353 40.1271 360.544 39.6971 360.814 39.3178C361.075 38.8766 361.407 38.4815 361.796 38.1482C362.301 37.7287 362.931 37.4896 363.588 37.4688C363.924 37.458 364.257 37.531 364.558 37.6811C364.859 37.8313 365.117 38.0539 365.31 38.3288C365.614 38.7674 365.768 39.2922 365.75 39.8252C365.776 40.2999 365.656 40.7712 365.405 41.1754C365.328 41.1754 365.474 40.6422 365.405 39.8424C365.378 39.3847 365.223 38.9437 364.957 38.5696C364.787 38.3623 364.571 38.1976 364.325 38.0886C364.08 37.9796 363.813 37.9293 363.545 37.9418C363.031 37.9952 362.536 38.1656 362.099 38.44C361.661 38.7143 361.292 39.0853 361.021 39.5242C360.59 40.1692 360.315 40.6164 360.254 40.582Z" fill="black"/>
</g>
<path d="M375.827 98.0042C375.827 98.0042 366.99 113.94 363.674 116.692C360.358 119.444 335.603 113.372 335.603 113.372L335.198 112.693C334.202 111.369 333.337 109.952 332.614 108.462C332.237 107.722 331.984 106.926 331.865 106.105C331.678 105.087 331.631 104.049 331.727 103.018C331.908 102.089 330.866 101.41 330.263 101.986C329.66 102.562 329.091 105.116 329.789 108.101C330.487 111.085 326.748 108.101 325.37 107.077C323.992 106.054 319.565 102.975 318.919 103.156C317.963 103.414 318.057 104.506 319.47 105.521C320.883 106.535 324.879 109.889 324.302 110.603C323.725 111.317 316.783 105.865 316.783 105.865C316.783 105.865 315.473 104.454 314.784 105.254C313.553 106.707 321.365 111.936 322.114 112.418C322.64 112.753 322.045 113.553 321.503 113.166C320.96 112.779 314.681 107.567 313.406 109.029C312.424 110.156 319.797 113.398 320.512 115.204C321.227 117.01 315.163 112.168 314.276 113.278C313.94 113.699 313.751 114.052 317.627 116.322C320.392 117.948 326.929 120.622 330.642 122.127C334.009 123.787 346.37 129.721 356.533 132.284C364.38 134.262 372.614 132.912 377.205 126.264L391.254 103.973L375.827 98.0042Z" fill="#FFBE9D"/>
<path d="M337.808 151.427L361.77 145.571V142.948L339.16 141.116L337.808 151.427Z" fill="#72B8F3"/>
<path opacity="0.4" d="M337.808 151.427L361.77 145.571V142.948L339.16 141.116L337.808 151.427Z" fill="black"/>
<path d="M385.603 139.439C383.975 139.964 361.779 142.948 361.779 142.948V145.528L387.257 150.284L385.603 139.439Z" fill="#72B8F3"/>
<path opacity="0.4" d="M385.603 139.439C383.975 139.964 361.779 142.948 361.779 142.948V145.528L387.257 150.284L385.603 139.439Z" fill="black"/>
<path d="M357.317 146.887C357.265 146.887 357.059 146.611 356.981 146.027C356.892 145.277 357.082 144.521 357.515 143.902C357.951 143.286 358.603 142.856 359.341 142.698C359.901 142.587 360.254 142.698 360.203 142.698C360.151 142.698 359.867 142.793 359.384 142.974C358.757 143.185 358.213 143.589 357.831 144.128C357.449 144.668 357.248 145.314 357.257 145.975C357.317 146.534 357.386 146.861 357.317 146.887Z" fill="#263238"/>
<path d="M358.083 143.722C358.083 143.67 358.316 143.515 358.764 143.404C359.375 143.243 360.023 143.298 360.599 143.558C360.899 143.687 361.161 143.891 361.36 144.15C361.559 144.409 361.688 144.715 361.736 145.038C361.787 145.536 361.589 145.812 361.546 145.786C361.503 145.76 361.546 145.493 361.417 145.098C361.34 144.848 361.21 144.617 361.036 144.421C360.862 144.225 360.649 144.069 360.409 143.963C359.907 143.747 359.359 143.661 358.816 143.713C358.385 143.739 358.101 143.782 358.083 143.722Z" fill="#263238"/>
<path d="M362.02 143.077C362.123 143.016 362.493 143.653 362.356 144.513C362.218 145.373 361.658 145.863 361.58 145.777C361.503 145.691 361.804 145.166 361.908 144.444C362.011 143.722 361.899 143.12 362.02 143.077Z" fill="#263238"/>
<path d="M341.322 146.921C343.921 146.354 346.549 145.932 349.195 145.657C351.824 145.225 354.475 144.938 357.136 144.797C354.535 145.365 351.904 145.79 349.255 146.07C346.63 146.507 343.981 146.791 341.322 146.921V146.921Z" fill="#263238"/>
<path d="M378.627 142.475C373.214 143.479 367.751 144.186 362.261 144.59C364.946 144.018 367.661 143.59 370.392 143.309C373.119 142.877 375.868 142.599 378.627 142.475V142.475Z" fill="#263238"/>
<path d="M376.051 144.694C375.386 144.78 374.713 144.797 374.044 144.745H369.229H364.414C363.748 144.798 363.077 144.775 362.416 144.676C363.067 144.514 363.735 144.43 364.406 144.427C365.637 144.332 367.343 144.264 369.238 144.264C371.133 144.264 372.83 144.35 374.061 144.444C374.732 144.444 375.401 144.528 376.051 144.694Z" fill="#263238"/>
<path d="M358.179 144.281C358.179 144.281 351.529 161.352 350.917 178.268V183.428L360.392 183.832C360.392 183.832 358.988 157.387 361.788 145.588L358.179 144.281Z" fill="#72B8F3"/>
<path opacity="0.4" d="M358.179 144.281C358.179 144.281 351.529 161.352 350.917 178.268V183.428L360.392 183.832C360.392 183.832 358.988 157.387 361.788 145.588L358.179 144.281Z" fill="black"/>
<path d="M360.151 181.57C358.599 181.674 357.042 181.674 355.491 181.57C353.935 181.621 352.378 181.561 350.831 181.39C352.371 181.115 353.938 181.025 355.5 181.123C357.062 181.082 358.624 181.232 360.151 181.57V181.57Z" fill="#263238"/>
<path d="M353.493 183.505C353.372 183.505 353.165 183.058 353.105 182.43C353.045 181.803 353.174 181.295 353.295 181.304C353.415 181.312 353.501 181.794 353.553 182.387C353.605 182.981 353.613 183.471 353.493 183.505Z" fill="#263238"/>
<path d="M357.455 183.703C357.343 183.703 357.085 183.273 357.016 182.637C356.947 182 357.119 181.484 357.231 181.502C357.343 181.519 357.403 182 357.464 182.585C357.524 183.17 357.576 183.66 357.455 183.703Z" fill="#263238"/>
<path d="M355.922 160.801C355.916 159.936 355.994 159.072 356.154 158.221C356.378 156.622 356.774 154.42 357.36 152.029C357.865 149.994 358.472 147.985 359.177 146.009C359.436 145.177 359.774 144.37 360.185 143.601C360.009 144.454 359.773 145.293 359.479 146.113C359.005 147.652 358.385 149.785 357.756 152.133C357.128 154.48 356.723 156.691 356.421 158.273C356.317 159.127 356.15 159.972 355.922 160.801Z" fill="#263238"/>
</svg>
